<?xml version="1.0" standalone="no"?>
<!DOCTYPE svg PUBLIC "-//W3C//DTD SVG 20010904//EN"
 "http://www.w3.org/TR/2001/REC-SVG-20010904/DTD/svg10.dtd">
<svg version="1.0" xmlns="http://www.w3.org/2000/svg"
 width="4096.000000pt" height="4096.000000pt" viewBox="0 0 4096.000000 4096.000000"
 preserveAspectRatio="xMidYMid meet">
<metadata>
Created by potrace 1.11, written by Peter Selinger 2001-2013
</metadata>
<g transform="translate(0.000000,4096.000000) scale(0.100000,-0.100000)"
fill="#000000" stroke="none">
<path d="M30055 35443 c-16 -2 -37 -11 -45 -18 -8 -7 -40 -18 -72 -24 -31 -7
-59 -19 -62 -27 -3 -7 -14 -14 -25 -14 -10 0 -22 -7 -25 -15 -3 -9 -18 -21
-34 -28 -30 -13 -92 -77 -92 -96 0 -6 -9 -16 -20 -23 -11 -7 -20 -20 -20 -30
0 -9 -9 -19 -19 -23 -13 -4 -22 -19 -26 -45 -4 -21 -13 -41 -21 -44 -7 -3 -17
-23 -20 -46 -4 -22 -10 -40 -14 -40 -11 0 -30 -49 -30 -79 0 -15 -8 -36 -19
-45 -12 -11 -20 -35 -23 -67 -3 -27 -12 -55 -20 -62 -9 -7 -18 -36 -21 -66 -4
-30 -13 -61 -22 -71 -8 -9 -15 -27 -15 -41 0 -39 -21 -103 -36 -112 -8 -5 -14
-24 -14 -48 0 -27 -5 -42 -16 -46 -8 -3 -20 -16 -25 -29 -15 -41 -39 -30 -39
19 0 30 -6 48 -20 60 -11 9 -20 28 -20 42 0 14 -8 29 -20 35 -11 6 -20 20 -20
31 0 11 -10 30 -23 42 -13 12 -26 30 -30 40 -3 9 -13 17 -21 17 -8 0 -18 9
-21 20 -3 11 -13 20 -22 20 -8 0 -17 9 -20 20 -3 11 -11 20 -18 20 -8 0 -27
11 -43 25 -17 14 -37 25 -45 25 -9 0 -22 8 -29 18 -9 13 -31 21 -66 25 -29 3
-67 13 -84 22 -47 23 -159 20 -200 -5 -18 -11 -50 -20 -70 -20 -25 0 -45 -7
-58 -20 -11 -11 -31 -20 -45 -20 -14 0 -28 -7 -32 -15 -3 -9 -19 -23 -36 -32
-17 -8 -37 -22 -45 -29 -7 -8 -20 -14 -28 -14 -8 0 -14 -7 -14 -15 0 -8 -9
-20 -20 -27 -11 -7 -20 -18 -20 -24 0 -6 -11 -22 -24 -35 -13 -13 -26 -34 -30
-46 -4 -13 -13 -23 -21 -23 -7 0 -16 -16 -19 -36 -4 -19 -13 -37 -21 -40 -7
-3 -16 -20 -19 -38 -4 -18 -15 -41 -26 -51 -12 -11 -20 -31 -20 -49 0 -19 -8
-38 -20 -49 -14 -11 -20 -29 -20 -57 0 -26 -7 -45 -19 -57 -11 -10 -22 -35
-26 -56 -8 -44 -24 -44 -39 0 -6 16 -19 38 -28 47 -10 10 -18 24 -18 32 0 8
-6 14 -13 14 -7 0 -17 10 -22 23 -6 12 -20 23 -32 25 -13 2 -23 8 -23 13 0 16
-67 10 -74 -6 -3 -8 -14 -15 -25 -15 -10 0 -21 -9 -24 -20 -3 -12 -14 -20 -26
-20 -12 0 -21 -6 -21 -15 0 -9 -12 -20 -27 -26 -14 -5 -34 -19 -43 -29 -10
-11 -25 -20 -34 -20 -9 0 -16 -7 -16 -15 0 -9 -11 -20 -25 -25 -14 -5 -25 -16
-25 -25 0 -8 -5 -15 -10 -15 -13 0 -120 -106 -120 -119 0 -5 -9 -11 -20 -14
-11 -3 -20 -12 -20 -21 0 -9 -7 -16 -15 -16 -9 0 -20 -11 -25 -25 -5 -14 -16
-25 -25 -25 -8 0 -15 -6 -15 -14 0 -8 -9 -21 -19 -28 -11 -8 -23 -26 -27 -42
-3 -15 -13 -30 -21 -33 -8 -3 -19 -16 -24 -29 -4 -13 -15 -24 -24 -24 -9 0
-15 -9 -15 -21 0 -12 -8 -23 -19 -26 -12 -3 -21 -17 -25 -38 -4 -21 -14 -36
-26 -40 -13 -4 -20 -15 -20 -31 0 -13 -9 -33 -20 -44 -11 -11 -20 -27 -20 -35
0 -8 -9 -24 -20 -35 -11 -11 -23 -32 -26 -47 -4 -16 -15 -39 -26 -52 -10 -13
-18 -32 -18 -42 0 -10 -7 -22 -16 -27 -10 -5 -18 -28 -21 -56 -4 -31 -12 -52
-24 -59 -11 -7 -19 -23 -19 -37 0 -14 -4 -31 -9 -39 -11 -17 -41 -7 -41 12 0
9 -15 17 -40 21 -22 3 -43 14 -49 24 -8 15 -27 17 -158 17 -140 0 -149 -1
-170 -22 -13 -13 -29 -23 -36 -23 -8 0 -22 -9 -31 -19 -10 -11 -28 -22 -41
-25 -12 -3 -25 -15 -28 -26 -3 -11 -12 -20 -21 -20 -9 0 -16 -6 -16 -14 0 -8
-9 -21 -19 -28 -11 -8 -23 -26 -26 -41 -4 -15 -15 -32 -25 -37 -10 -5 -21 -22
-25 -37 -3 -16 -12 -35 -19 -43 -8 -8 -17 -28 -20 -45 -4 -16 -16 -38 -27 -48
-12 -12 -19 -31 -19 -57 0 -25 -7 -46 -19 -57 -12 -12 -20 -37 -23 -75 -3 -32
-12 -66 -20 -75 -10 -11 -17 -44 -20 -85 -3 -50 -9 -71 -22 -81 -12 -9 -19
-32 -23 -77 -3 -36 -14 -81 -24 -100 -11 -19 -19 -52 -19 -74 0 -23 -7 -47
-17 -58 -10 -12 -20 -45 -24 -84 -4 -39 -13 -70 -22 -77 -8 -7 -17 -36 -21
-67 -3 -32 -12 -60 -21 -66 -8 -6 -18 -33 -22 -60 -3 -27 -14 -60 -25 -73 -10
-13 -18 -39 -18 -57 0 -21 -8 -42 -20 -54 -11 -11 -20 -33 -20 -48 0 -16 -9
-39 -20 -52 -11 -13 -20 -33 -20 -46 0 -12 -11 -35 -24 -51 -13 -15 -26 -44
-30 -65 -4 -20 -13 -39 -21 -42 -8 -3 -15 -13 -15 -23 0 -10 -7 -29 -15 -43
-8 -14 -21 -42 -30 -62 -9 -20 -23 -39 -31 -42 -8 -3 -14 -14 -14 -25 0 -11
-6 -24 -12 -28 -7 -4 -21 -25 -30 -45 -10 -21 -22 -38 -28 -38 -5 0 -10 -9
-10 -21 0 -12 -8 -23 -19 -26 -12 -3 -23 -17 -26 -34 -4 -16 -15 -34 -26 -39
-10 -6 -19 -20 -19 -30 0 -11 -7 -20 -15 -20 -9 0 -19 -8 -22 -17 -4 -10 -22
-34 -41 -53 -19 -19 -40 -47 -48 -62 -8 -16 -19 -28 -25 -28 -5 0 -14 -11 -19
-25 -5 -14 -14 -25 -21 -25 -14 0 -69 -55 -69 -69 0 -6 -7 -11 -15 -11 -9 0
-20 -11 -25 -25 -5 -14 -15 -25 -21 -25 -7 0 -21 -9 -33 -20 -53 -51 -137
-120 -146 -120 -6 0 -10 -6 -10 -14 0 -8 -9 -18 -20 -21 -11 -3 -20 -13 -20
-20 0 -8 -11 -17 -24 -21 -13 -3 -26 -14 -29 -25 -3 -10 -12 -19 -21 -19 -9 0
-16 -7 -16 -15 0 -9 -11 -20 -25 -25 -14 -5 -25 -16 -25 -25 0 -8 -7 -15 -15
-15 -9 0 -18 -7 -21 -15 -4 -9 -17 -21 -29 -28 -27 -14 -108 -81 -138 -114
-11 -13 -27 -23 -34 -23 -7 0 -13 -6 -13 -14 0 -8 -9 -18 -20 -21 -11 -3 -20
-13 -20 -21 0 -8 -11 -19 -24 -23 -13 -5 -26 -17 -29 -25 -4 -9 -13 -16 -21
-16 -8 0 -18 -9 -21 -20 -3 -11 -12 -20 -20 -20 -7 0 -23 -11 -36 -25 -13 -13
-29 -25 -36 -25 -7 0 -17 -9 -23 -19 -5 -11 -19 -23 -30 -26 -11 -3 -20 -12
-20 -20 0 -8 -9 -17 -20 -20 -11 -3 -20 -13 -20 -21 0 -8 -8 -18 -17 -21 -10
-4 -24 -15 -31 -25 -7 -10 -19 -18 -27 -18 -7 0 -17 -9 -20 -20 -3 -11 -13
-20 -20 -20 -8 0 -18 -6 -22 -14 -10 -18 -89 -76 -103 -76 -5 0 -10 -7 -10
-15 0 -9 -11 -21 -25 -27 -14 -6 -25 -17 -25 -25 0 -7 -11 -18 -24 -22 -13 -5
-26 -17 -29 -25 -4 -9 -13 -16 -22 -16 -8 0 -15 -7 -15 -15 0 -9 -8 -19 -17
-22 -10 -4 -37 -26 -60 -50 -23 -24 -47 -43 -53 -43 -7 0 -29 -18 -50 -40 -21
-22 -43 -40 -49 -40 -7 0 -16 -11 -21 -25 -5 -14 -16 -25 -24 -25 -9 0 -20 -9
-26 -20 -6 -11 -17 -20 -24 -20 -8 0 -16 -9 -19 -20 -3 -11 -12 -20 -20 -20
-9 0 -19 -9 -22 -20 -3 -11 -11 -20 -17 -20 -6 0 -28 -18 -49 -40 -22 -22 -43
-40 -47 -40 -7 0 -68 -53 -138 -120 -12 -11 -26 -20 -33 -20 -6 0 -11 -7 -11
-15 0 -9 -12 -20 -26 -25 -33 -13 -32 -14 -27 14 4 20 -2 27 -42 46 -44 22
-47 22 -66 4 -11 -10 -32 -18 -47 -19 -25 0 -26 -2 -28 -61 -2 -57 -1 -63 27
-83 31 -23 39 -61 14 -61 -9 0 -20 -11 -25 -25 -5 -14 -16 -25 -24 -25 -8 0
-17 -9 -21 -19 -3 -10 -15 -21 -25 -24 -11 -3 -20 -12 -20 -20 0 -9 -9 -19
-21 -22 -11 -4 -70 -56 -131 -116 -60 -60 -116 -109 -123 -109 -7 0 -15 -9
-18 -20 -3 -11 -12 -20 -20 -20 -8 0 -17 -9 -20 -20 -3 -11 -12 -20 -20 -20
-9 0 -18 -9 -22 -19 -3 -11 -15 -23 -26 -26 -10 -4 -19 -12 -19 -20 0 -8 -9
-16 -19 -20 -10 -3 -21 -15 -24 -25 -3 -11 -12 -20 -20 -20 -9 0 -18 -9 -22
-19 -3 -10 -15 -21 -25 -24 -11 -3 -20 -12 -20 -20 0 -8 -9 -17 -20 -20 -12
-3 -20 -14 -20 -26 0 -14 -6 -21 -19 -21 -11 0 -23 -9 -26 -20 -3 -11 -12 -20
-20 -20 -8 0 -17 -9 -20 -20 -3 -11 -13 -20 -21 -20 -8 0 -19 -11 -24 -25 -5
-14 -16 -25 -24 -25 -7 0 -16 -9 -19 -20 -3 -11 -12 -20 -21 -20 -9 0 -16 -6
-16 -13 0 -7 -10 -23 -22 -34 -13 -11 -34 -34 -48 -52 -14 -17 -30 -31 -37
-31 -7 0 -13 -4 -13 -10 0 -8 -12 -23 -86 -101 -13 -14 -24 -31 -24 -37 0 -7
-6 -12 -14 -12 -8 0 -18 -9 -21 -20 -3 -11 -13 -20 -21 -20 -8 0 -19 -11 -24
-25 -5 -14 -14 -25 -20 -25 -6 0 -15 -11 -20 -25 -5 -14 -16 -25 -24 -25 -8 0
-18 -9 -21 -20 -3 -11 -13 -20 -21 -20 -8 0 -14 -7 -14 -15 0 -8 -11 -22 -25
-31 -14 -9 -25 -20 -25 -24 0 -4 -20 -29 -45 -56 -25 -26 -45 -52 -45 -57 0
-6 -17 -26 -38 -46 -21 -20 -41 -44 -45 -53 -4 -10 -13 -18 -22 -18 -8 0 -15
-7 -15 -15 0 -8 -9 -19 -20 -25 -11 -6 -20 -16 -20 -22 0 -9 -25 -43 -74 -98
-7 -8 -16 -23 -19 -32 -4 -10 -13 -18 -22 -18 -8 0 -15 -9 -15 -19 0 -11 -9
-22 -19 -26 -11 -3 -23 -15 -26 -26 -4 -10 -10 -19 -15 -19 -5 0 -19 -18 -30
-40 -11 -22 -25 -40 -30 -40 -6 0 -10 -9 -10 -21 0 -12 -8 -23 -19 -26 -10 -2
-24 -16 -30 -29 -6 -13 -15 -24 -20 -24 -5 0 -14 -13 -21 -30 -7 -16 -17 -30
-22 -30 -5 0 -14 -13 -19 -30 -6 -16 -17 -30 -25 -30 -8 0 -14 -9 -14 -19 0
-11 -8 -22 -18 -25 -10 -4 -24 -22 -31 -41 -7 -19 -17 -35 -22 -35 -5 0 -14
-11 -19 -25 -5 -14 -16 -25 -25 -25 -8 0 -15 -9 -15 -19 0 -11 -11 -33 -25
-49 -14 -17 -25 -34 -25 -40 0 -5 -7 -12 -15 -16 -8 -3 -20 -17 -25 -31 -5
-14 -14 -25 -19 -25 -5 0 -12 -14 -16 -30 -4 -17 -15 -35 -25 -40 -10 -5 -21
-21 -24 -35 -4 -14 -13 -25 -21 -25 -8 0 -17 -14 -21 -35 -4 -21 -13 -37 -25
-40 -11 -4 -19 -16 -19 -29 0 -13 -11 -35 -25 -50 -14 -15 -25 -33 -25 -40 0
-8 -7 -16 -14 -19 -8 -3 -18 -22 -22 -41 -3 -20 -12 -36 -19 -36 -15 0 -25
-22 -25 -55 0 -14 -7 -26 -19 -30 -12 -3 -21 -19 -25 -39 -4 -19 -13 -36 -20
-39 -7 -3 -17 -22 -20 -42 -4 -20 -13 -38 -21 -41 -7 -3 -16 -25 -19 -49 -5
-31 -12 -44 -26 -48 -15 -4 -20 -14 -20 -41 0 -25 -6 -40 -20 -48 -14 -9 -20
-24 -20 -49 0 -20 -8 -43 -18 -55 -10 -11 -21 -36 -25 -57 -3 -20 -15 -49 -26
-64 -13 -16 -21 -40 -21 -66 0 -25 -6 -44 -16 -52 -11 -7 -18 -32 -22 -66 -2
-31 -12 -62 -22 -74 -11 -13 -19 -44 -23 -84 -3 -41 -11 -67 -20 -72 -10 -6
-17 -35 -22 -93 -3 -46 -13 -96 -21 -112 -10 -19 -18 -91 -26 -229 -8 -147
-15 -202 -25 -208 -20 -12 -19 -205 2 -213 9 -4 15 -19 15 -40 0 -35 -16 -46
-26 -19 -4 8 -15 15 -25 15 -12 0 -19 7 -19 20 0 11 -7 20 -15 20 -9 0 -19 8
-22 18 -4 9 -17 28 -29 42 -79 87 -104 119 -104 128 0 6 -9 16 -19 22 -11 5
-23 19 -26 30 -3 11 -12 20 -20 20 -7 0 -15 9 -18 21 -3 11 -15 23 -26 26 -12
3 -21 11 -21 19 0 7 -9 18 -20 24 -11 6 -20 17 -20 26 0 8 -11 26 -24 38 -12
13 -26 31 -29 40 -4 9 -13 16 -22 16 -8 0 -15 7 -15 15 0 8 -9 20 -20 27 -11
7 -20 18 -20 25 0 7 -9 17 -20 23 -11 6 -20 17 -20 25 0 8 -7 15 -15 15 -9 0
-20 11 -25 25 -5 14 -13 25 -18 25 -5 0 -26 25 -48 55 -21 30 -47 57 -56 60
-10 4 -18 15 -18 26 0 10 -7 19 -15 19 -9 0 -20 11 -25 25 -5 14 -16 25 -25
25 -8 0 -15 9 -15 20 0 11 -5 20 -11 20 -11 0 -47 36 -103 105 -16 19 -35 35
-43 35 -7 0 -13 7 -13 15 0 13 -37 58 -107 132 -13 13 -23 26 -23 29 0 10 -67
74 -79 74 -6 0 -11 7 -11 15 0 8 -9 19 -20 25 -11 6 -20 17 -20 25 0 7 -9 16
-19 20 -10 3 -21 15 -24 25 -3 11 -12 20 -21 20 -9 0 -16 7 -16 15 0 8 -9 19
-20 25 -11 6 -20 17 -20 25 0 8 -4 15 -9 15 -14 0 -81 65 -81 79 0 6 -7 11
-15 11 -9 0 -20 11 -25 25 -5 14 -47 62 -93 107 -46 46 -86 91 -90 101 -3 9
-13 17 -22 17 -8 0 -15 7 -15 15 0 9 -7 18 -16 22 -8 3 -20 16 -25 29 -5 14
-17 24 -29 24 -13 0 -20 7 -20 19 0 10 -9 21 -20 24 -11 3 -20 12 -20 21 0 9
-7 16 -15 16 -9 0 -20 11 -25 25 -5 14 -14 25 -21 25 -14 0 -63 50 -72 73 -3
9 -13 17 -22 17 -8 0 -15 7 -15 16 0 9 -9 18 -20 21 -11 3 -20 12 -20 19 0 8
-11 19 -25 24 -14 5 -25 16 -25 25 0 8 -5 15 -11 15 -14 0 -79 67 -79 81 0 5
-9 9 -20 9 -13 0 -20 7 -20 20 0 13 -7 20 -19 20 -11 0 -23 9 -26 20 -3 11
-11 20 -16 20 -6 0 -24 14 -41 30 -16 17 -36 30 -44 30 -8 0 -14 6 -14 14 0 8
-9 18 -20 21 -11 3 -20 13 -20 21 0 8 -9 14 -21 14 -12 0 -23 8 -26 19 -3 11
-16 22 -29 25 -13 4 -24 13 -24 22 0 9 -9 18 -20 21 -11 3 -20 8 -20 12 0 4
-15 15 -32 25 -18 11 -41 26 -50 35 -10 9 -29 25 -44 36 -14 11 -33 28 -42 37
-10 9 -30 20 -46 24 -16 4 -31 15 -33 25 -3 12 -14 19 -28 19 -15 0 -26 8 -30
20 -4 12 -19 22 -40 26 -21 4 -35 13 -38 25 -3 12 -14 19 -31 19 -14 0 -33 8
-43 19 -10 10 -28 22 -40 25 -13 4 -23 11 -23 16 0 4 -18 15 -40 24 -22 9 -40
20 -40 25 0 5 -18 12 -41 16 -22 4 -43 13 -46 21 -3 8 -23 17 -45 20 -22 4
-42 13 -45 20 -2 7 -28 18 -56 25 -29 6 -55 18 -60 25 -4 7 -28 16 -52 20 -25
3 -49 13 -54 21 -4 9 -29 17 -57 21 -27 2 -60 13 -73 23 -13 11 -40 19 -61 19
-22 0 -46 8 -59 19 -14 12 -45 22 -79 26 -60 7 -63 8 -102 30 -14 8 -45 15
-70 15 -25 0 -58 7 -75 16 -16 9 -63 20 -104 24 -40 4 -77 13 -81 20 -4 6 -45
16 -90 21 -46 5 -90 15 -97 21 -8 6 -53 17 -100 24 -47 7 -89 17 -92 23 -4 5
-42 14 -84 20 -43 5 -86 16 -95 24 -10 9 -45 16 -86 19 -46 3 -72 9 -80 20 -7
10 -35 17 -85 20 -49 4 -78 11 -85 20 -6 8 -36 17 -68 21 -34 3 -70 14 -87 26
-19 14 -45 21 -75 21 -30 0 -57 7 -74 19 -15 10 -49 22 -76 25 -27 3 -57 12
-65 20 -9 8 -36 17 -61 21 -25 4 -57 16 -72 26 -14 11 -42 19 -62 19 -23 0
-39 6 -42 14 -3 8 -30 20 -59 26 -29 6 -58 17 -65 24 -6 8 -30 17 -54 20 -25
4 -46 13 -49 20 -3 7 -23 16 -45 19 -21 4 -51 16 -65 27 -14 11 -39 20 -56 20
-20 0 -34 7 -41 20 -6 11 -26 22 -48 26 -20 4 -48 15 -61 25 -13 11 -33 19
-43 19 -11 0 -31 9 -45 20 -14 11 -36 20 -48 20 -12 0 -30 9 -40 20 -10 11
-26 20 -35 20 -10 0 -28 8 -41 19 -13 10 -39 22 -57 26 -18 3 -37 15 -42 26
-6 11 -21 19 -35 19 -14 0 -33 9 -42 20 -10 11 -27 20 -38 20 -11 0 -28 9 -38
20 -9 11 -26 20 -36 20 -11 0 -26 9 -34 20 -8 11 -28 23 -45 26 -18 4 -32 14
-35 25 -3 13 -14 19 -31 19 -14 0 -35 9 -46 20 -11 11 -27 20 -35 20 -8 0 -19
9 -25 19 -5 11 -23 22 -40 26 -16 4 -33 12 -37 19 -5 7 -24 18 -43 26 -19 8
-39 20 -43 27 -4 7 -16 13 -27 13 -10 0 -21 9 -25 19 -3 12 -19 21 -40 25 -19
4 -35 11 -35 16 0 8 -37 30 -107 65 -18 8 -33 21 -33 29 0 8 -15 17 -35 20
-19 4 -35 11 -35 17 0 6 -14 15 -30 20 -16 6 -30 17 -30 25 0 7 -15 16 -35 20
-20 3 -40 15 -46 25 -5 11 -16 19 -24 19 -8 0 -18 6 -22 14 -4 7 -25 19 -45
25 -21 7 -38 19 -38 26 0 7 -14 16 -30 20 -17 4 -35 15 -40 26 -6 10 -19 19
-30 19 -11 0 -24 8 -29 19 -6 10 -23 22 -38 26 -15 3 -33 15 -41 26 -7 10 -20
19 -28 19 -8 0 -17 6 -20 14 -3 8 -19 18 -35 21 -16 4 -34 15 -39 26 -6 10
-19 19 -30 19 -11 0 -24 9 -30 20 -6 11 -17 20 -25 20 -8 0 -26 11 -41 25 -15
14 -33 25 -40 25 -8 0 -14 6 -14 13 0 7 -15 19 -34 25 -19 7 -37 19 -40 27 -3
8 -15 15 -27 15 -12 0 -23 8 -26 20 -3 11 -13 20 -23 20 -9 0 -25 9 -34 19
-10 11 -28 22 -41 25 -13 3 -27 15 -30 26 -3 11 -15 20 -25 20 -11 0 -24 9
-30 19 -5 11 -23 22 -40 26 -16 4 -30 12 -30 20 0 7 -11 16 -25 19 -14 4 -25
13 -25 20 0 8 -10 16 -23 20 -12 3 -32 14 -44 26 -12 11 -30 20 -39 20 -9 0
-18 9 -21 19 -3 11 -16 22 -29 25 -13 4 -24 13 -24 20 0 8 -14 17 -31 21 -17
4 -33 14 -36 22 -3 8 -16 19 -29 24 -13 4 -24 15 -24 24 0 8 -7 15 -16 15 -8
0 -30 11 -48 25 -18 14 -38 25 -44 25 -7 0 -12 6 -12 14 0 8 -10 18 -22 22
-13 4 -29 15 -36 25 -7 11 -18 19 -24 19 -5 0 -24 11 -42 25 -17 14 -42 33
-55 42 -13 10 -34 28 -46 41 -12 12 -27 22 -34 22 -6 0 -11 4 -11 9 0 5 -16
16 -35 25 -19 9 -39 26 -45 36 -6 11 -17 20 -25 20 -8 0 -19 9 -25 20 -6 11
-17 20 -25 20 -8 0 -15 7 -15 15 0 8 -6 15 -14 15 -8 0 -21 8 -28 19 -7 10
-27 25 -44 34 -17 9 -34 23 -37 32 -4 8 -13 15 -21 15 -7 0 -16 9 -19 20 -3
12 -14 20 -26 20 -14 0 -21 6 -21 20 0 13 -7 20 -20 20 -11 0 -20 7 -20 15 0
9 -11 20 -25 25 -14 5 -25 16 -25 25 0 8 -7 15 -15 15 -8 0 -37 23 -64 50 -28
27 -57 50 -66 50 -8 0 -15 7 -15 16 0 9 -9 18 -20 21 -11 3 -20 10 -20 15 0
11 -69 78 -81 78 -5 0 -9 7 -9 15 0 9 -11 20 -24 24 -13 5 -26 17 -29 25 -4 9
-13 16 -22 16 -8 0 -15 7 -15 16 0 9 -9 18 -20 21 -11 3 -20 10 -20 15 0 13
-65 78 -79 78 -6 0 -11 7 -11 16 0 9 -9 18 -20 21 -11 3 -20 12 -20 19 0 8
-11 19 -25 24 -14 5 -25 17 -25 25 0 9 -7 18 -15 21 -8 3 -17 14 -20 25 -4 10
-12 19 -20 19 -8 0 -16 9 -20 19 -3 11 -15 23 -26 26 -10 4 -19 12 -19 20 0 8
-9 16 -19 20 -10 3 -21 15 -24 25 -3 11 -12 20 -21 20 -9 0 -16 6 -16 13 0 8
-31 47 -70 88 -38 41 -70 80 -70 87 0 6 -7 12 -15 12 -9 0 -20 11 -25 25 -5
14 -16 25 -24 25 -8 0 -18 9 -21 20 -3 11 -12 20 -20 20 -7 0 -15 9 -18 21 -3
11 -15 23 -26 26 -12 3 -21 14 -21 24 0 11 -6 19 -13 19 -8 0 -19 11 -25 25
-6 14 -18 25 -27 25 -8 0 -15 7 -15 15 0 8 -9 19 -20 25 -11 6 -20 17 -20 24
0 8 -11 24 -25 37 -13 13 -25 30 -25 37 0 7 -11 17 -25 22 -14 5 -25 16 -25
24 0 8 -9 18 -20 21 -11 3 -20 15 -20 25 0 9 -9 20 -20 23 -11 3 -20 12 -20
20 0 9 -9 19 -20 22 -11 3 -20 13 -20 20 0 8 -9 19 -20 25 -11 6 -20 16 -20
21 0 11 -23 40 -67 84 -13 12 -23 27 -23 33 0 7 -11 19 -25 28 -14 9 -25 22
-25 29 0 7 -9 15 -20 18 -11 3 -20 12 -20 21 0 9 -8 16 -20 16 -10 0 -23 6
-27 14 -26 43 -121 49 -173 11 -19 -14 -44 -25 -57 -25 -14 0 -23 -6 -23 -15
0 -9 -11 -20 -25 -25 -14 -5 -35 -19 -47 -30 -12 -11 -25 -20 -30 -20 -4 0
-15 -15 -24 -32 -9 -18 -23 -37 -30 -41 -8 -4 -14 -16 -14 -26 0 -10 -9 -21
-20 -24 -11 -3 -22 -17 -26 -33 -4 -16 -15 -37 -25 -47 -11 -10 -19 -32 -19
-52 0 -22 -6 -37 -17 -44 -16 -9 -18 -30 -18 -211 0 -181 2 -202 18 -211 11
-6 17 -22 17 -43 0 -20 8 -40 19 -50 10 -9 21 -31 25 -47 4 -19 13 -33 26 -36
11 -3 20 -12 20 -21 0 -16 7 -26 58 -77 48 -49 79 -75 90 -75 6 0 15 -8 21
-17 5 -10 24 -22 43 -28 26 -9 34 -18 36 -42 2 -24 -1 -32 -17 -36 -12 -3 -21
-13 -21 -22 0 -9 -9 -28 -20 -42 -11 -14 -20 -32 -20 -39 0 -7 -9 -29 -21 -48
-19 -32 -20 -48 -17 -190 2 -130 6 -157 20 -173 10 -11 18 -29 18 -41 0 -12 9
-30 20 -39 11 -10 20 -25 20 -34 0 -9 9 -19 20 -22 11 -3 20 -12 20 -20 0 -9
9 -18 19 -22 11 -3 23 -15 26 -26 4 -10 13 -19 20 -19 8 0 19 -8 24 -19 6 -10
26 -22 45 -25 19 -4 36 -13 39 -20 3 -8 29 -15 63 -19 37 -4 61 -12 66 -21 12
-22 175 -23 204 -1 10 8 27 15 36 15 16 0 18 -15 17 -177 0 -166 1 -179 20
-194 11 -9 23 -32 26 -53 4 -20 13 -36 21 -36 7 0 16 -11 20 -25 3 -14 10 -25
15 -25 6 0 19 -15 30 -34 11 -19 33 -39 49 -46 17 -7 30 -19 30 -26 0 -8 8
-14 18 -14 10 0 33 -11 52 -25 21 -15 47 -25 68 -25 19 0 48 -7 65 -16 18 -9
38 -20 45 -23 11 -5 14 -51 15 -209 2 -178 4 -205 19 -213 10 -5 19 -29 23
-60 4 -31 15 -57 26 -67 10 -9 19 -23 19 -30 0 -8 9 -25 20 -39 11 -14 20 -34
20 -44 0 -12 7 -19 20 -19 13 0 22 -9 26 -25 4 -16 13 -25 25 -25 12 0 19 -7
19 -19 0 -10 9 -21 20 -24 11 -3 20 -12 20 -21 0 -9 7 -16 16 -16 9 0 27 -11
40 -25 13 -14 32 -25 43 -25 11 0 25 -9 31 -20 6 -11 19 -20 29 -20 10 0 30
-9 44 -20 14 -11 31 -20 39 -20 7 0 21 -9 31 -20 9 -11 31 -23 47 -27 17 -3
30 -11 30 -18 0 -8 14 -16 31 -20 17 -4 33 -14 36 -22 3 -8 16 -19 29 -24 13
-4 24 -15 24 -24 0 -8 5 -15 11 -15 14 0 69 -55 69 -69 0 -7 11 -16 24 -21 13
-5 26 -20 30 -36 4 -16 16 -34 27 -42 10 -7 19 -17 19 -23 0 -5 8 -18 18 -28
43 -47 62 -74 68 -96 3 -13 12 -26 20 -29 8 -3 14 -12 14 -20 0 -9 9 -20 20
-26 11 -6 20 -17 20 -25 0 -8 11 -26 25 -41 14 -15 25 -32 25 -39 0 -7 9 -15
20 -18 12 -3 20 -14 20 -26 0 -12 6 -21 15 -21 8 0 15 -4 15 -10 0 -5 14 -25
30 -43 17 -19 30 -42 30 -50 0 -9 9 -18 19 -22 10 -3 21 -15 24 -25 3 -11 12
-20 21 -20 9 0 16 -8 16 -20 0 -13 7 -20 20 -20 12 0 20 -7 20 -16 0 -9 29
-45 65 -79 36 -35 65 -67 65 -72 0 -6 21 -30 47 -55 27 -25 71 -71 99 -102 29
-31 57 -56 63 -56 6 0 33 -22 60 -50 27 -27 53 -50 59 -50 5 0 12 -9 15 -20 3
-11 12 -20 20 -20 9 0 19 -9 22 -20 3 -11 15 -20 26 -20 10 0 19 -7 19 -15 0
-9 11 -20 25 -25 14 -5 25 -16 25 -25 0 -8 7 -15 16 -15 9 0 32 -13 51 -30 18
-16 38 -30 43 -30 6 0 10 -7 10 -15 0 -8 9 -15 19 -15 11 0 23 -9 26 -20 3
-11 12 -20 19 -20 7 0 26 -11 42 -25 16 -14 34 -25 41 -25 7 0 17 -9 23 -20 6
-11 19 -20 29 -20 10 0 21 -8 24 -19 2 -10 17 -21 33 -25 15 -4 34 -16 42 -27
7 -10 19 -19 27 -19 8 0 19 -9 25 -20 6 -11 20 -20 30 -20 11 0 29 -9 40 -20
11 -11 27 -20 35 -20 8 0 19 -8 24 -19 6 -10 26 -22 45 -25 21 -4 36 -13 39
-25 3 -11 17 -21 40 -25 19 -4 38 -13 41 -21 3 -8 14 -15 23 -15 10 0 26 -9
36 -20 9 -11 29 -20 43 -20 17 0 28 -6 31 -19 3 -13 17 -22 43 -26 21 -4 41
-13 44 -20 3 -8 21 -17 41 -21 20 -3 39 -13 42 -20 3 -7 21 -16 41 -20 21 -4
44 -14 54 -24 9 -9 35 -20 57 -24 23 -3 44 -13 47 -21 3 -8 25 -17 49 -21 24
-3 46 -12 49 -20 3 -7 24 -17 46 -20 23 -4 44 -13 47 -20 2 -7 30 -19 61 -25
32 -7 62 -18 67 -25 6 -6 32 -17 59 -23 26 -7 55 -18 63 -26 8 -8 32 -15 54
-15 21 0 39 -4 39 -8 0 -13 47 -32 80 -32 16 0 36 -7 44 -15 9 -9 43 -21 76
-27 33 -5 60 -13 60 -17 0 -13 50 -31 86 -31 20 0 48 -8 62 -19 15 -10 51 -21
81 -23 35 -4 57 -11 63 -22 6 -11 23 -16 60 -16 29 0 58 -6 67 -14 23 -19 78
-36 119 -36 20 0 44 -7 54 -16 10 -10 41 -19 70 -22 29 -3 58 -11 64 -19 6 -9
39 -18 83 -23 39 -4 80 -14 89 -23 9 -8 41 -17 71 -20 29 -4 63 -13 75 -21 13
-8 49 -17 82 -21 32 -4 70 -16 83 -26 15 -13 40 -19 71 -19 32 0 55 -6 73 -20
15 -12 40 -20 63 -20 21 0 56 -9 78 -19 23 -10 60 -21 83 -24 23 -3 54 -14 69
-26 19 -15 41 -21 75 -21 34 0 53 -5 66 -19 11 -11 38 -20 66 -23 26 -3 56
-12 65 -21 9 -8 41 -18 70 -22 28 -4 55 -12 60 -19 4 -7 29 -18 57 -25 27 -7
53 -17 56 -22 3 -6 25 -13 48 -16 24 -3 45 -12 48 -19 3 -7 21 -16 41 -20 21
-3 48 -14 62 -23 14 -10 42 -21 63 -25 21 -4 40 -13 43 -21 3 -7 23 -16 45
-20 23 -4 43 -14 49 -26 7 -12 21 -19 40 -19 17 0 34 -8 42 -19 7 -10 28 -22
46 -26 18 -4 36 -13 38 -20 3 -7 21 -16 40 -19 18 -4 38 -16 44 -26 6 -11 20
-20 31 -20 11 0 22 -6 25 -14 3 -8 19 -18 35 -21 17 -4 35 -15 42 -26 6 -10
19 -19 28 -19 8 0 26 -11 39 -25 13 -14 31 -25 41 -25 10 0 21 -9 24 -20 4
-11 15 -20 26 -20 11 0 22 -6 25 -14 3 -8 19 -20 35 -26 16 -7 34 -21 40 -31
5 -11 19 -19 29 -19 11 0 20 -7 20 -15 0 -9 7 -18 15 -22 9 -3 34 -23 56 -44
22 -22 45 -39 50 -39 6 0 32 -22 58 -50 26 -27 53 -50 60 -50 6 0 11 -7 11
-15 0 -8 5 -15 11 -15 13 0 64 -53 73 -75 3 -8 12 -15 21 -15 8 0 15 -4 15 -9
0 -13 65 -81 78 -81 5 0 12 -10 16 -22 3 -13 23 -41 44 -63 21 -22 41 -48 45
-57 3 -10 13 -18 21 -18 9 0 18 -11 22 -25 3 -14 12 -25 20 -25 8 0 14 -6 14
-14 0 -8 8 -21 18 -28 10 -7 24 -27 31 -45 7 -17 21 -33 32 -36 11 -3 19 -14
19 -25 0 -11 9 -22 20 -25 11 -3 20 -12 20 -21 0 -9 9 -25 20 -36 11 -11 20
-29 20 -41 0 -12 8 -23 20 -26 11 -3 20 -13 20 -23 0 -10 6 -20 14 -23 8 -3
20 -22 27 -41 7 -20 21 -38 31 -42 10 -3 18 -13 18 -22 0 -10 9 -25 20 -35 11
-9 20 -26 20 -37 0 -11 9 -25 20 -32 11 -7 20 -20 20 -28 0 -8 12 -26 25 -39
14 -13 25 -31 25 -40 0 -9 9 -22 20 -29 11 -7 20 -21 20 -32 0 -11 9 -28 20
-37 11 -10 20 -26 20 -36 0 -9 6 -20 14 -23 8 -3 22 -23 30 -45 9 -21 20 -39
26 -39 5 0 12 -11 16 -24 3 -14 14 -32 25 -42 10 -9 19 -25 19 -35 0 -10 8
-23 19 -28 10 -6 22 -26 25 -46 4 -21 13 -35 21 -35 8 0 15 -9 15 -19 0 -11
11 -32 25 -47 14 -15 25 -34 25 -43 0 -9 9 -22 20 -29 11 -7 20 -23 20 -37 0
-13 8 -30 19 -37 10 -7 22 -28 26 -46 4 -18 13 -36 20 -39 8 -2 17 -17 20 -33
3 -15 15 -36 26 -46 10 -9 19 -24 19 -33 0 -9 9 -24 20 -34 11 -9 20 -26 20
-37 0 -11 9 -29 19 -39 10 -10 22 -33 26 -51 4 -18 16 -41 26 -51 10 -10 19
-28 19 -39 0 -11 9 -29 20 -40 11 -11 20 -30 20 -43 0 -12 9 -30 20 -39 11
-10 23 -30 26 -45 4 -15 15 -39 26 -52 10 -13 18 -34 18 -46 0 -12 9 -34 20
-48 11 -14 20 -38 20 -54 0 -17 8 -33 19 -40 11 -7 22 -29 26 -52 3 -22 12
-42 20 -45 7 -2 16 -24 20 -48 4 -24 14 -50 22 -59 7 -9 17 -34 20 -55 3 -22
14 -51 24 -66 11 -14 19 -40 19 -57 0 -16 8 -38 19 -48 11 -11 20 -38 24 -67
3 -29 12 -55 21 -61 9 -7 16 -27 16 -46 1 -51 16 -106 34 -124 10 -11 16 -34
16 -65 0 -30 7 -62 19 -82 12 -21 21 -61 24 -110 3 -48 11 -83 20 -92 10 -10
16 -51 21 -132 6 -89 12 -121 23 -129 22 -17 33 -437 12 -451 -7 -4 -64 -11
-127 -15 -66 -4 -119 -12 -128 -20 -8 -6 -55 -15 -105 -20 -49 -4 -96 -13
-104 -19 -9 -7 -56 -17 -107 -21 -53 -5 -98 -15 -107 -23 -9 -8 -50 -17 -91
-21 -41 -4 -94 -16 -117 -26 -23 -10 -64 -19 -90 -19 -29 0 -58 -7 -72 -16
-12 -9 -57 -20 -99 -25 -49 -5 -79 -14 -84 -23 -5 -9 -33 -17 -73 -21 -36 -4
-82 -16 -102 -26 -21 -11 -55 -19 -78 -19 -24 0 -50 -8 -65 -20 -17 -14 -41
-20 -77 -20 -38 0 -57 -5 -70 -19 -11 -11 -39 -21 -70 -24 -29 -3 -62 -13 -75
-21 -13 -8 -47 -17 -75 -21 -29 -4 -53 -10 -53 -14 0 -14 -50 -31 -89 -31 -22
0 -45 -7 -57 -18 -11 -11 -43 -21 -74 -25 -32 -4 -57 -13 -62 -22 -5 -8 -22
-15 -37 -15 -39 0 -88 -19 -95 -36 -3 -9 -20 -14 -47 -14 -26 0 -50 -7 -66
-20 -15 -12 -41 -20 -63 -20 -29 0 -39 -4 -43 -20 -4 -16 -14 -20 -45 -20 -23
0 -49 -8 -63 -19 -13 -10 -40 -22 -59 -26 -19 -4 -42 -13 -50 -21 -8 -7 -35
-17 -60 -23 -24 -5 -50 -17 -56 -25 -6 -10 -26 -16 -47 -16 -25 0 -39 -6 -46
-19 -6 -11 -26 -21 -51 -25 -22 -3 -40 -11 -40 -16 0 -5 -19 -15 -42 -22 -24
-6 -52 -17 -63 -24 -11 -6 -38 -17 -60 -24 -22 -7 -44 -19 -48 -26 -4 -8 -17
-14 -27 -14 -11 0 -29 -9 -39 -19 -10 -10 -32 -22 -49 -26 -16 -3 -38 -15 -48
-26 -9 -10 -25 -19 -34 -19 -10 0 -29 -9 -43 -20 -14 -11 -32 -20 -41 -20 -9
0 -19 -7 -22 -15 -3 -8 -24 -20 -45 -25 -21 -6 -39 -17 -39 -24 0 -8 -15 -17
-35 -20 -19 -4 -39 -16 -45 -26 -6 -11 -20 -20 -31 -20 -11 0 -22 -6 -25 -14
-3 -8 -19 -18 -35 -21 -16 -4 -34 -15 -39 -25 -5 -10 -23 -21 -40 -25 -17 -4
-35 -15 -40 -26 -6 -10 -20 -19 -30 -19 -13 0 -20 -7 -20 -20 0 -14 -7 -20
-22 -20 -13 0 -34 -12 -47 -25 -13 -14 -28 -25 -35 -25 -6 0 -17 -9 -24 -20
-7 -11 -19 -20 -26 -20 -8 0 -18 -9 -21 -20 -3 -11 -13 -20 -20 -20 -8 0 -19
-9 -25 -20 -6 -11 -17 -20 -25 -20 -7 0 -32 -18 -55 -40 -41 -39 -41 -39 -38
-106 3 -65 4 -68 34 -78 29 -11 41 -19 85 -58 10 -10 24 -18 29 -18 6 0 15
-11 20 -25 5 -14 16 -25 24 -25 8 0 17 -9 21 -19 3 -11 12 -22 20 -25 8 -3 15
-12 15 -20 0 -9 8 -20 19 -25 11 -6 21 -26 25 -50 3 -22 15 -48 25 -58 12 -12
20 -37 23 -76 3 -33 9 -62 15 -65 6 -4 14 -18 19 -32 4 -14 8 -305 8 -648 1
-559 3 -625 17 -635 9 -7 19 -28 23 -48 7 -39 35 -59 85 -59 49 0 91 12 91 26
0 7 9 16 20 19 11 3 20 13 20 21 0 8 11 19 25 24 14 5 25 16 25 24 0 8 9 18
20 21 11 3 20 13 20 21 0 8 7 14 15 14 8 0 19 9 25 19 5 11 19 23 30 26 11 3
20 11 20 16 0 14 56 69 69 69 6 0 11 7 11 15 0 9 11 20 24 24 13 5 26 19 29
30 3 12 12 21 20 21 8 0 17 9 20 20 3 11 12 20 21 20 9 0 16 7 16 15 0 9 9 19
19 23 17 6 124 98 186 160 12 12 27 22 34 22 6 0 11 5 11 11 0 13 53 64 75 73
8 3 15 12 15 20 0 7 11 17 25 20 14 4 25 13 25 21 0 8 7 15 15 15 9 0 20 11
25 24 5 13 20 26 36 30 16 4 34 16 42 27 7 10 19 19 26 19 8 0 16 9 19 20 3
12 14 20 26 20 14 0 21 6 21 20 0 11 6 20 14 20 7 0 30 16 51 35 21 19 53 41
71 50 19 9 34 22 34 30 0 8 8 15 19 15 10 0 21 9 24 20 3 12 14 20 26 20 11 0
25 9 31 20 6 11 22 23 36 26 13 3 29 15 35 25 5 11 19 19 29 19 11 0 20 7 20
15 0 8 6 15 13 15 6 0 22 3 35 6 25 7 24 11 7 -69 -5 -24 0 -31 42 -57 42 -27
48 -28 63 -15 9 8 31 15 48 15 27 0 35 6 52 40 11 21 20 43 20 48 0 13 -72 82
-86 82 -17 0 -45 30 -39 41 4 5 14 9 23 9 10 0 23 9 30 20 7 11 18 20 26 20 7
0 21 9 31 20 10 11 29 20 42 20 16 0 27 7 30 19 3 12 17 21 38 25 18 4 36 13
39 21 3 8 14 15 25 15 11 0 33 11 49 25 17 14 37 25 45 25 8 0 17 9 20 20 4
15 14 20 36 20 20 0 34 7 41 20 6 11 26 22 45 26 20 3 40 15 46 25 5 11 18 19
28 19 10 0 30 9 44 20 14 11 32 20 40 20 7 0 22 9 32 20 10 11 26 20 37 20 10
0 27 9 38 20 11 11 34 23 51 27 17 3 33 12 36 19 3 7 21 16 40 20 20 4 44 15
53 24 9 9 34 20 54 24 20 4 46 16 57 27 10 10 32 19 49 19 16 0 33 7 38 16 5
8 27 18 50 21 23 3 42 9 42 13 0 9 40 25 85 35 17 4 37 12 45 20 8 7 41 16 72
19 31 4 62 13 68 21 6 7 41 16 78 20 37 3 81 14 97 23 21 12 61 18 138 20 120
5 177 -3 177 -22 0 -8 17 -16 42 -19 23 -3 47 -12 53 -20 5 -8 20 -17 32 -21
24 -8 173 -150 173 -165 0 -6 11 -22 25 -37 14 -15 25 -33 25 -40 0 -8 7 -14
15 -14 9 0 20 -11 25 -25 5 -14 16 -25 25 -25 8 0 15 -6 15 -14 0 -7 11 -25
25 -40 14 -15 25 -33 25 -41 0 -8 9 -19 20 -25 11 -6 20 -17 20 -25 0 -7 9
-17 20 -20 11 -3 20 -11 20 -17 0 -6 20 -30 45 -54 25 -23 45 -47 45 -53 0 -6
9 -11 20 -11 11 0 20 -7 20 -15 0 -8 9 -19 20 -25 11 -6 20 -17 20 -25 0 -8 7
-15 15 -15 8 0 22 -11 31 -25 9 -14 23 -25 30 -25 8 0 14 -7 14 -15 0 -8 7
-15 15 -15 9 0 20 -11 25 -25 5 -14 16 -25 24 -25 19 0 66 -46 66 -65 0 -8 7
-15 15 -15 9 0 20 -11 25 -25 5 -14 16 -25 24 -25 8 0 18 -9 21 -20 3 -11 12
-20 19 -20 7 0 35 -20 62 -45 27 -25 57 -47 67 -51 9 -3 17 -10 17 -15 0 -5
11 -14 25 -19 14 -5 25 -16 25 -25 0 -8 8 -15 19 -15 10 0 30 -11 45 -25 15
-14 33 -25 41 -25 8 0 19 -9 25 -20 6 -11 19 -20 30 -20 11 0 27 -8 37 -19 10
-10 28 -22 41 -25 12 -4 22 -13 22 -21 0 -8 17 -16 40 -20 23 -4 40 -12 40
-20 0 -15 22 -25 56 -25 13 0 24 -6 24 -13 0 -7 11 -23 25 -35 14 -12 25 -31
25 -42 0 -10 9 -24 20 -30 14 -7 20 -21 20 -43 0 -18 9 -43 20 -57 14 -18 20
-41 20 -81 0 -46 5 -61 25 -83 14 -15 25 -38 25 -50 0 -15 7 -26 20 -29 12 -3
20 -14 20 -26 0 -12 7 -24 15 -27 8 -3 17 -21 21 -40 3 -19 14 -36 24 -39 11
-3 21 -20 24 -40 4 -19 16 -39 26 -45 11 -6 20 -20 20 -30 0 -11 7 -20 15 -20
8 0 15 -7 15 -15 0 -8 12 -18 28 -21 35 -9 62 -32 62 -55 0 -10 9 -23 20 -29
11 -6 20 -17 20 -26 0 -8 11 -20 25 -26 14 -6 25 -17 25 -24 0 -7 9 -16 20
-19 11 -3 20 -13 20 -20 0 -8 11 -17 25 -21 14 -3 25 -12 25 -18 0 -7 11 -18
25 -24 14 -6 25 -16 25 -21 0 -6 16 -13 35 -17 20 -4 35 -12 35 -20 0 -8 8
-18 18 -21 22 -9 72 -58 72 -72 0 -7 11 -16 25 -21 14 -5 25 -14 25 -20 0 -5
7 -18 15 -27 41 -47 65 -82 65 -97 0 -8 11 -18 25 -22 14 -3 25 -11 25 -18 0
-6 15 -18 33 -25 17 -8 38 -23 45 -33 7 -10 19 -18 26 -18 8 0 16 -9 19 -20 3
-11 12 -20 21 -20 9 0 16 -8 16 -19 0 -10 9 -30 20 -44 25 -32 25 -84 0 -122
-11 -16 -20 -35 -20 -42 0 -7 -16 -28 -35 -47 -19 -20 -35 -40 -35 -45 0 -5
-9 -13 -21 -16 -12 -4 -28 -13 -37 -21 -10 -8 -30 -26 -46 -39 -16 -14 -40
-25 -52 -25 -15 0 -24 -6 -24 -15 0 -8 -18 -22 -40 -31 -22 -9 -40 -20 -40
-25 0 -5 -11 -14 -25 -19 -14 -5 -25 -16 -25 -24 0 -8 -8 -21 -19 -28 -10 -7
-21 -24 -26 -36 -4 -13 -16 -33 -26 -43 -16 -16 -19 -34 -19 -106 0 -111 6
-130 42 -149 38 -19 48 -11 48 38 0 31 4 41 20 45 10 3 22 13 25 23 4 13 21
18 78 23 48 4 75 11 83 22 7 9 28 19 48 22 23 3 38 12 41 24 4 11 15 19 27 19
11 0 22 8 25 20 3 11 11 20 19 20 7 0 19 8 26 18 7 10 21 21 31 25 9 3 17 13
17 22 0 8 7 15 15 15 8 0 27 11 42 24 16 14 41 36 57 50 16 14 33 26 37 26 5
0 9 6 9 14 0 10 16 17 44 21 25 4 47 13 50 21 8 20 189 20 205 0 9 -10 56 -15
201 -18 182 -4 190 -5 214 -27 20 -19 31 -22 60 -17 34 7 36 9 36 47 0 25 -5
42 -14 45 -14 6 -30 60 -21 75 9 13 35 -1 35 -20 0 -9 9 -22 19 -28 11 -7 22
-25 26 -42 3 -17 14 -31 26 -34 11 -3 19 -14 19 -26 0 -12 7 -24 15 -27 8 -3
19 -21 25 -40 6 -19 18 -34 26 -34 8 0 14 -9 14 -21 0 -12 8 -23 20 -26 11 -3
20 -11 20 -18 0 -8 23 -38 50 -68 28 -30 50 -58 50 -61 0 -3 18 -23 40 -45 22
-21 40 -42 40 -47 0 -4 7 -15 16 -25 15 -17 14 -20 -6 -48 -12 -17 -28 -31
-36 -31 -8 0 -17 -7 -20 -15 -3 -8 -26 -17 -50 -21 -24 -3 -55 -15 -69 -26
-22 -17 -41 -19 -270 -17 -230 2 -248 1 -273 -18 -15 -11 -35 -22 -44 -26 -10
-3 -18 -13 -18 -20 0 -8 -9 -21 -21 -28 -16 -11 -23 -32 -31 -91 -14 -97 -3
-163 27 -163 16 0 21 8 23 37 2 25 10 41 23 48 10 6 19 20 19 30 0 28 35 60
65 60 14 0 25 5 25 10 0 6 9 10 20 10 11 0 20 -4 20 -9 0 -4 28 -11 62 -14 37
-3 66 -11 73 -20 18 -25 271 -42 418 -27 85 9 125 17 133 28 22 31 294 29 294
-3 0 -8 16 -16 40 -20 26 -4 41 -13 45 -26 4 -10 13 -19 21 -19 8 0 32 -11 52
-25 20 -14 42 -25 49 -25 7 0 13 -6 13 -14 0 -9 15 -17 39 -21 26 -4 41 -13
44 -24 3 -12 18 -21 41 -25 20 -4 39 -13 42 -20 3 -8 22 -16 44 -20 21 -3 40
-12 43 -20 3 -8 23 -18 44 -22 21 -3 43 -13 50 -21 8 -10 44 -19 105 -25 51
-6 98 -14 104 -19 6 -5 56 -12 110 -16 90 -6 101 -9 126 -34 16 -15 28 -36 28
-46 0 -34 22 -49 66 -44 16 1 26 108 18 172 -5 36 -14 60 -31 75 -12 12 -23
26 -23 33 0 6 -5 11 -11 11 -7 0 -22 11 -35 25 -13 14 -34 25 -47 25 -16 0
-26 7 -30 19 -3 12 -17 20 -46 25 -25 4 -41 12 -41 20 0 9 -17 16 -45 20 -27
5 -45 12 -45 20 0 14 -42 26 -94 26 -17 0 -42 9 -56 20 -14 11 -40 20 -58 20
-37 0 -72 15 -72 31 0 6 5 7 10 4 6 -3 10 0 10 8 0 24 28 30 192 37 93 4 162
11 171 18 7 6 37 16 65 23 29 6 52 15 52 20 0 5 11 14 25 19 14 5 25 16 25 24
0 7 9 16 20 19 11 3 20 14 20 24 0 10 9 26 20 36 12 10 20 29 20 47 0 28 3 30
36 30 31 0 45 -8 85 -49 27 -28 49 -57 49 -66 0 -11 7 -15 23 -13 21 3 22 7
20 91 -1 75 -4 92 -22 111 -12 12 -21 30 -21 39 0 9 -7 17 -16 17 -9 0 -18 9
-21 20 -3 11 -13 20 -22 20 -9 0 -29 9 -46 20 -35 23 -107 27 -124 6 -6 -8
-33 -17 -59 -21 -28 -4 -52 -14 -60 -26 -8 -12 -25 -19 -44 -19 -21 0 -31 -6
-35 -19 -3 -11 -17 -21 -35 -25 -17 -3 -37 -15 -45 -26 -8 -11 -25 -20 -37
-20 -13 0 -35 -9 -49 -20 -18 -15 -40 -20 -81 -20 -31 0 -56 -4 -56 -9 0 -28
-248 -41 -258 -14 -2 7 8 17 22 23 14 5 26 14 26 20 0 6 11 15 25 20 14 5 25
16 25 25 0 8 8 15 18 15 20 0 152 126 152 145 0 6 9 18 20 28 18 15 20 29 20
139 0 133 0 134 72 206 26 25 19 48 -23 69 -19 10 -28 9 -45 -2 -12 -7 -38
-17 -58 -21 -21 -3 -40 -13 -43 -20 -3 -8 -12 -14 -19 -14 -8 0 -19 -11 -24
-25 -5 -14 -16 -25 -25 -25 -8 0 -15 -9 -15 -19 0 -11 -9 -23 -20 -26 -11 -3
-20 -14 -20 -23 0 -9 -11 -30 -25 -46 -14 -16 -25 -37 -25 -48 0 -10 -3 -18
-7 -18 -13 0 -33 -52 -33 -82 0 -17 -7 -31 -20 -38 -11 -6 -20 -20 -20 -30 0
-13 -7 -20 -19 -20 -10 0 -21 -7 -25 -15 -8 -22 -126 -22 -126 0 0 8 -7 15
-16 15 -20 0 -114 93 -114 112 0 9 -9 18 -20 21 -14 3 -20 14 -20 31 0 14 -9
34 -20 43 -12 10 -20 30 -20 47 0 16 -9 48 -19 70 -11 24 -21 74 -24 119 -4
51 -12 88 -23 105 -14 20 -19 56 -24 145 -3 82 -9 120 -18 126 -10 6 -16 64
-23 226 -6 120 -14 226 -20 236 -16 30 -11 282 6 315 10 19 15 58 15 114 0 67
4 92 20 118 14 23 20 50 20 91 0 44 5 65 21 85 13 16 23 47 26 83 5 52 10 62
50 101 31 30 52 42 73 42 19 0 33 7 40 20 7 13 21 20 40 20 18 0 37 8 47 20
10 11 32 23 50 26 19 4 38 15 44 25 6 12 21 19 39 19 19 0 33 7 40 20 6 11 17
20 24 20 7 0 23 9 36 20 13 11 34 23 46 26 12 3 24 14 27 25 3 11 14 19 26 19
12 0 21 6 21 15 0 8 4 15 9 15 13 0 54 35 130 111 80 80 108 113 116 139 4 11
13 20 21 20 8 0 14 7 14 17 0 9 11 31 25 49 14 18 25 41 25 51 0 34 15 41 105
48 58 5 96 13 108 23 11 10 49 18 110 22 52 4 104 13 116 20 13 6 68 16 124
21 59 6 108 16 117 23 9 9 54 17 113 21 66 5 100 12 105 21 5 9 41 17 106 23
53 5 104 15 112 22 8 7 55 15 103 19 49 5 99 14 112 23 13 8 60 18 104 22 44
4 90 13 103 22 21 13 25 13 35 -1 10 -13 40 -18 142 -22 86 -4 138 -11 153
-21 16 -10 82 -17 225 -24 111 -5 211 -14 222 -19 11 -6 87 -14 169 -19 120
-7 152 -12 161 -25 7 -9 21 -16 31 -16 25 0 49 -16 37 -23 -6 -4 -18 -27 -28
-52 -17 -46 -17 -46 6 -72 29 -30 116 -76 129 -68 5 3 22 26 36 51 15 25 31
42 38 39 6 -3 18 -8 27 -11 9 -3 22 -21 29 -40 8 -19 18 -34 22 -34 5 0 14
-14 19 -30 6 -17 15 -30 19 -30 4 0 13 -23 20 -50 7 -28 18 -54 26 -58 8 -5
16 -35 20 -82 3 -41 13 -93 21 -115 9 -23 18 -92 22 -160 l6 -120 38 -3 c32
-3 39 0 44 17 3 11 13 23 23 26 11 3 21 20 25 41 3 19 13 38 21 41 7 3 14 13
14 23 0 10 11 32 25 48 14 17 25 35 25 41 0 6 9 20 20 31 11 11 20 30 20 43 0
12 9 30 20 40 11 9 20 25 20 36 0 10 9 30 20 43 10 14 24 44 29 67 5 23 16 50
25 60 9 10 16 31 16 48 0 17 8 37 19 47 12 11 20 35 23 71 3 30 12 63 20 72 9
11 18 49 22 98 4 44 15 95 24 115 14 29 17 66 16 206 0 109 -4 177 -11 185
-13 16 -33 108 -33 149 0 19 -5 30 -14 30 -10 0 -17 16 -21 48 -4 26 -11 57
-17 68 -7 15 -7 28 2 44 10 18 9 24 -7 36 -10 7 -26 16 -36 20 -10 3 -22 17
-27 30 -5 13 -16 24 -24 24 -9 0 -18 14 -21 34 -5 22 -14 36 -26 39 -11 3 -19
14 -19 25 0 12 -9 23 -20 27 -11 3 -20 13 -20 22 0 8 -9 17 -20 20 -11 3 -20
11 -20 19 0 7 -9 18 -19 24 -11 5 -23 19 -26 30 -3 11 -12 20 -20 20 -8 0 -16
9 -20 19 -3 10 -15 21 -25 24 -11 3 -20 12 -20 21 0 9 -8 16 -20 16 -11 0 -20
7 -20 15 0 9 -11 20 -25 25 -14 5 -25 16 -25 25 0 8 -7 15 -16 15 -9 0 -27 11
-40 25 -13 14 -32 25 -42 25 -11 0 -22 9 -25 20 -3 13 -14 20 -30 20 -13 0
-32 9 -42 20 -10 11 -25 20 -33 20 -9 0 -24 7 -34 17 -10 9 -39 22 -65 28 -42
11 -49 16 -57 46 -6 19 -15 39 -22 44 -7 6 -14 59 -17 145 -5 106 -9 137 -21
146 -9 6 -20 33 -25 60 -5 26 -16 53 -24 59 -9 6 -18 27 -22 47 -4 20 -13 39
-20 42 -7 2 -15 20 -19 40 -4 20 -15 40 -26 46 -11 6 -20 20 -20 31 0 11 -7
22 -15 25 -8 3 -20 21 -27 40 -6 19 -16 34 -20 34 -5 0 -13 11 -18 25 -5 14
-16 25 -25 25 -8 0 -15 6 -15 14 0 8 -8 21 -18 28 -9 7 -25 25 -35 40 -24 38
-128 138 -143 138 -7 0 -18 9 -24 20 -6 11 -17 20 -25 20 -8 0 -15 7 -15 15 0
9 -11 20 -25 25 -14 5 -25 16 -25 25 0 8 -9 15 -20 15 -10 0 -24 8 -29 19 -6
10 -22 22 -35 25 -14 3 -30 15 -36 26 -6 11 -17 20 -25 20 -8 0 -19 8 -24 19
-6 10 -22 22 -36 25 -14 4 -34 15 -45 26 -11 11 -27 20 -35 20 -8 0 -15 7 -15
15 0 8 -14 17 -35 21 -20 3 -40 15 -46 25 -5 11 -18 19 -28 19 -10 0 -29 8
-42 19 -13 10 -39 22 -57 26 -18 4 -36 13 -38 20 -3 8 -23 16 -45 20 -23 4
-43 14 -49 26 -7 13 -21 19 -45 19 -18 0 -41 7 -49 16 -9 9 -41 19 -70 23 -30
4 -66 16 -82 25 -16 11 -54 21 -91 24 -34 2 -63 8 -63 12 0 11 -57 30 -86 30
-14 0 -24 6 -24 14 0 16 -21 26 -55 26 -14 0 -29 9 -35 20 -7 13 -21 20 -40
20 -16 0 -35 6 -42 14 -8 7 -32 19 -53 27 -22 8 -49 22 -59 32 -11 9 -28 17
-38 17 -10 0 -28 9 -40 20 -12 11 -30 20 -40 20 -9 0 -22 8 -27 19 -6 10 -27
22 -47 25 -24 5 -38 14 -41 27 -3 10 -14 19 -24 19 -11 0 -19 7 -19 15 0 9 -8
19 -17 22 -23 9 -73 58 -73 72 0 5 -9 13 -20 16 -16 5 -20 15 -20 46 0 26 -5
42 -15 45 -19 8 -19 53 0 90 8 16 15 46 15 66 0 25 6 41 19 50 10 7 22 28 25
45 4 18 13 36 19 40 7 5 20 25 29 46 10 20 22 37 28 37 5 0 10 9 10 21 0 12 8
23 20 26 11 3 20 13 20 22 0 16 28 56 66 95 11 11 23 29 27 39 3 9 13 17 22
17 8 0 15 9 15 20 0 11 7 20 15 20 9 0 19 8 22 18 4 9 24 34 45 55 21 21 38
42 38 47 0 5 8 11 18 14 11 4 25 18 33 33 8 15 51 64 97 110 45 45 82 87 82
93 0 5 5 10 10 10 6 0 50 39 100 88 49 48 109 103 134 122 25 19 45 39 45 43
1 12 54 56 68 57 6 0 15 9 18 20 3 11 13 20 22 20 8 0 17 9 20 20 3 11 14 20
24 20 11 0 19 7 19 15 0 9 11 20 25 25 14 5 25 16 25 25 0 9 11 20 25 25 14 5
25 14 25 19 0 5 9 13 20 16 11 3 20 13 20 20 0 8 16 22 35 31 19 9 35 20 35
25 0 5 11 15 25 21 14 6 25 17 25 25 0 7 9 13 20 13 11 0 20 7 20 15 0 9 11
20 25 25 14 5 25 16 25 25 0 8 7 15 15 15 8 0 20 9 27 20 7 11 17 20 22 20 5
0 18 9 30 20 57 54 78 70 92 70 9 0 18 9 21 20 3 11 9 20 14 20 4 0 20 11 35
25 15 14 31 25 35 25 5 0 9 6 9 14 0 8 10 18 23 22 12 4 32 17 44 30 12 13 29
24 38 24 8 0 15 7 15 15 0 8 11 17 25 21 16 4 25 13 25 25 0 10 7 19 15 19 8
0 25 10 38 23 37 34 70 58 95 68 12 5 22 15 22 24 0 8 7 15 15 15 8 0 19 9 25
20 6 11 17 20 25 20 8 0 19 9 25 20 6 11 15 20 19 20 5 0 23 14 41 30 18 17
38 30 46 30 8 0 14 7 14 15 0 8 8 15 19 15 10 0 21 9 24 20 3 12 14 20 26 20
12 0 21 6 21 15 0 9 11 20 25 25 14 5 25 14 25 19 0 5 16 16 35 25 19 9 35 21
35 27 0 5 11 14 25 19 14 5 25 14 25 20 0 6 11 15 25 20 14 5 25 16 25 25 0 8
7 15 15 15 8 0 19 8 24 19 6 10 24 24 40 31 16 6 32 18 35 26 3 8 12 14 20 14
9 0 20 9 26 20 6 11 17 20 26 20 8 0 19 11 24 25 6 15 17 25 30 25 11 0 20 7
20 15 0 8 4 15 10 15 5 0 23 13 40 30 17 17 37 30 45 30 7 0 17 9 20 20 3 11
15 20 25 20 9 0 20 9 23 20 3 11 12 20 20 20 8 0 17 9 20 20 3 11 14 20 25 20
11 0 22 9 25 20 3 11 12 20 20 20 9 0 19 9 22 20 3 11 12 20 18 20 12 0 55 34
102 80 12 11 26 20 32 20 6 0 13 9 16 20 3 11 12 20 21 20 9 0 16 7 16 15 0 9
11 20 25 25 14 5 25 16 25 25 0 8 9 15 20 15 11 0 20 7 20 15 0 9 11 20 25 25
14 5 25 16 25 25 0 8 7 15 16 15 9 0 18 9 21 20 3 11 10 20 16 20 5 0 32 23
58 50 26 28 52 50 56 50 12 0 203 190 203 201 0 5 4 9 9 9 16 0 91 84 91 102
0 9 9 19 19 23 11 3 23 15 26 26 4 10 11 19 16 19 14 0 69 56 69 69 0 6 6 11
14 11 8 0 18 9 21 20 3 11 15 25 26 30 10 6 19 17 19 25 0 8 9 15 20 15 11 0
20 7 20 15 0 9 7 18 16 22 8 3 20 16 25 29 4 13 15 24 24 24 8 0 15 4 15 9 0
6 10 21 23 35 12 14 42 48 67 77 25 29 55 64 68 77 12 12 22 29 22 37 0 8 7
15 15 15 9 0 21 11 27 25 6 14 17 25 25 25 7 0 13 5 13 11 0 7 9 21 20 33 43
43 80 91 80 101 0 6 9 16 20 23 11 7 20 19 20 27 0 8 7 15 15 15 9 0 20 11 24
24 5 13 17 26 25 29 9 4 16 13 16 21 0 7 7 17 15 20 9 3 21 19 26 35 6 17 19
33 30 36 10 4 19 15 19 25 0 9 9 20 20 23 12 3 20 14 20 26 0 12 6 21 15 21 9
0 20 11 25 25 5 14 14 25 19 25 5 0 15 15 22 33 7 17 21 38 31 45 10 7 18 20
18 28 0 8 6 14 13 14 8 0 19 11 25 25 6 14 16 25 21 25 5 0 15 16 21 35 6 19
17 35 25 35 7 0 16 11 19 25 4 14 13 25 21 25 8 0 15 9 15 19 0 11 8 26 19 33
10 7 26 28 35 46 9 17 20 32 25 32 5 0 12 11 15 25 4 14 13 25 20 25 8 0 17
14 21 30 4 17 15 35 26 40 10 6 19 17 19 25 0 8 7 18 15 23 15 8 42 50 67 105
7 15 18 27 25 27 7 0 15 11 19 24 3 14 14 32 25 42 10 9 19 26 19 36 0 11 8
22 18 25 10 2 24 20 31 39 7 20 19 38 27 41 8 3 14 13 14 23 0 10 9 22 20 25
11 4 20 15 20 26 0 11 9 29 20 41 11 12 20 30 20 41 0 10 9 21 20 24 11 3 20
14 20 25 0 10 11 29 25 42 14 13 25 33 25 45 0 11 6 21 14 21 15 0 26 21 26
52 0 11 8 22 20 25 13 3 20 14 20 28 0 13 11 33 25 46 13 13 25 32 25 42 0 9
7 17 15 17 8 0 17 14 21 35 3 20 15 40 25 46 11 5 19 18 19 28 0 10 9 30 20
44 11 14 20 29 20 34 0 5 11 24 25 43 14 19 25 42 25 52 0 10 7 18 15 18 8 0
17 14 21 35 3 20 14 40 24 45 10 5 21 26 24 45 4 20 14 39 22 42 7 3 14 11 14
19 0 16 18 51 38 72 6 7 12 20 12 28 0 8 6 17 14 20 8 3 18 20 22 37 3 18 12
39 19 47 7 8 20 32 28 53 9 20 21 37 26 37 6 0 14 18 17 40 4 23 12 40 20 40
7 0 16 16 20 36 4 19 12 38 19 40 7 3 18 25 24 50 7 26 17 44 26 44 9 0 16 16
20 44 4 25 13 47 20 50 8 3 17 21 21 41 3 20 12 39 20 42 7 2 16 19 19 36 4
18 15 41 25 52 10 11 22 37 26 59 4 21 15 47 25 57 11 11 19 32 19 49 0 19 7
33 20 40 14 7 20 21 20 43 0 20 8 39 20 50 11 9 20 27 20 39 0 13 9 37 19 55
11 17 23 48 27 68 3 19 15 40 25 46 13 7 19 21 19 45 0 21 8 43 20 56 12 13
20 36 20 55 0 21 7 40 20 50 11 10 20 30 20 46 0 16 11 43 25 61 16 21 25 46
25 69 0 22 6 39 15 45 9 4 19 31 24 61 5 32 15 57 25 63 10 6 16 22 16 44 0
20 9 48 20 64 10 15 22 46 26 68 4 23 12 47 20 53 7 6 16 32 20 57 3 26 15 61
25 78 11 17 19 45 19 62 0 17 8 39 19 49 10 10 21 39 25 67 3 27 12 57 20 65
8 9 17 40 21 69 4 30 13 56 22 61 10 5 17 28 20 62 3 30 11 59 19 65 8 6 19
38 26 70 6 33 15 62 20 65 4 3 15 36 23 74 7 37 18 71 23 74 5 3 13 26 17 51
4 24 15 55 23 68 9 13 19 49 23 79 4 30 14 62 22 71 8 10 17 41 20 71 4 31 13
58 22 65 9 6 18 34 21 66 4 30 13 60 21 67 9 7 18 34 21 60 3 26 13 59 23 72
12 14 19 40 19 65 0 28 6 47 19 58 12 10 22 36 26 69 4 29 16 61 26 73 11 12
19 34 19 56 0 23 7 41 20 53 13 11 20 29 20 51 0 18 8 44 19 57 10 13 22 43
26 66 3 23 13 47 21 54 8 6 17 29 20 50 4 21 15 46 25 55 11 10 19 31 19 50 0
23 6 37 20 44 14 7 20 21 20 44 0 20 8 40 20 51 11 10 20 27 20 37 0 11 11 34
25 52 14 18 25 39 25 47 0 8 9 25 20 39 11 14 20 35 20 46 0 13 8 24 18 27 12
2 22 17 26 37 3 18 15 39 26 47 11 8 20 23 20 34 0 10 9 27 20 36 11 10 20 26
20 36 0 9 7 20 15 23 8 3 20 21 27 40 6 19 18 34 25 34 7 0 15 11 19 25 3 14
10 25 15 25 4 0 16 16 25 36 9 20 23 38 31 41 7 3 13 14 13 25 0 11 8 22 20
25 11 3 20 12 20 19 0 8 9 19 20 26 11 7 20 18 20 25 0 6 9 18 19 25 11 8 23
26 26 41 4 14 16 29 26 32 10 4 19 10 19 14 0 5 11 20 25 35 14 15 25 31 25
37 0 5 7 9 15 9 9 0 19 8 22 18 4 9 12 21 20 25 7 4 20 24 28 43 8 18 19 34
24 34 6 0 11 9 11 21 0 12 8 23 20 26 11 3 24 20 30 38 6 18 17 36 25 39 8 3
15 17 15 31 0 14 6 28 14 31 8 3 18 20 22 37 3 18 15 40 25 50 18 16 19 36 19
247 0 218 -1 231 -20 247 -11 10 -20 30 -20 45 0 16 -9 36 -20 45 -11 10 -20
25 -20 35 0 10 -7 18 -15 18 -8 0 -21 16 -30 35 -10 25 -25 40 -50 50 -19 9
-35 22 -35 30 0 8 -9 15 -19 15 -11 0 -27 8 -37 17 -10 10 -42 20 -81 25 -35
4 -73 14 -86 23 -27 19 -56 19 -94 0 -17 -9 -48 -16 -69 -18 l-39 -2 -6 72
c-3 47 -11 79 -22 91 -9 10 -17 30 -17 45 0 14 -11 43 -25 63 -14 20 -25 43
-25 50 0 8 -5 14 -10 14 -6 0 -16 11 -22 25 -6 14 -17 25 -25 25 -7 0 -13 7
-13 15 0 9 -11 20 -25 25 -14 5 -25 16 -25 25 0 8 -8 15 -18 15 -11 0 -29 9
-41 19 -12 10 -42 22 -67 26 -25 3 -48 13 -51 21 -7 20 -146 20 -163 -1 -6 -7
-31 -17 -55 -21 -24 -3 -46 -12 -49 -19 -3 -8 -21 -17 -40 -20 -21 -4 -38 -14
-41 -25 -3 -10 -16 -21 -28 -24 -12 -3 -52 -35 -89 -71 -37 -36 -71 -65 -77
-65 -6 0 -11 -5 -11 -10 0 -9 -38 -54 -111 -131 -15 -16 -29 -35 -32 -44 -4
-8 -11 -15 -17 -15 -6 0 -15 -11 -20 -25 -5 -14 -16 -25 -24 -25 -7 0 -16 -10
-20 -22 -10 -40 -29 -4 -37 68 -5 46 -12 70 -23 76 -9 5 -16 22 -16 39 0 17
-8 36 -20 46 -11 10 -20 23 -20 30 0 14 -20 37 -110 128 -35 36 -70 65 -76 65
-6 0 -19 9 -28 19 -10 11 -35 23 -57 26 -21 4 -43 14 -48 23 -7 13 -29 17
-108 18 -54 1 -111 0 -128 -3z m-5108 -16080 c4 -10 15 -29 25 -42 10 -13 18
-34 18 -47 0 -13 9 -33 20 -44 11 -11 20 -29 20 -40 0 -11 7 -23 15 -26 8 -3
20 -21 27 -40 6 -19 20 -36 30 -40 10 -3 18 -12 18 -20 0 -7 15 -21 33 -29 58
-28 89 -47 108 -66 10 -10 29 -19 42 -19 12 0 28 -9 35 -20 8 -13 23 -20 42
-20 18 0 33 -6 37 -16 7 -20 -34 -64 -61 -64 -12 0 -34 -7 -50 -15 -15 -8 -43
-15 -61 -15 -18 0 -46 7 -61 15 -16 8 -46 15 -66 15 -28 0 -38 5 -43 20 -4 13
-15 20 -32 20 -27 0 -68 38 -93 86 -8 16 -20 34 -26 39 -6 6 -14 25 -18 44 -3
19 -13 39 -21 45 -19 14 -30 115 -21 189 6 43 12 58 27 62 10 4 19 15 19 26 0
24 28 25 37 2z m-9097 -2393 c0 -5 -4 -10 -10 -10 -5 0 -10 5 -10 10 0 6 5 10
10 10 6 0 10 -4 10 -10z m5213 -754 c27 -53 28 -68 31 -329 3 -246 4 -255 26
-285 12 -16 30 -32 40 -35 10 -3 20 -18 24 -40 4 -20 11 -37 16 -39 5 -2 13
-25 16 -53 4 -27 17 -72 29 -100 12 -27 25 -57 28 -65 2 -9 17 -22 32 -30 25
-13 28 -13 41 4 7 10 15 24 17 30 10 26 29 -15 31 -65 l1 -54 -57 -10 c-31 -5
-65 -18 -75 -27 -11 -10 -23 -18 -26 -18 -10 0 -67 -62 -67 -72 0 -5 -12 -8
-27 -6 -20 2 -33 13 -45 37 -10 19 -24 39 -33 43 -8 5 -15 16 -15 23 0 8 -4
15 -10 15 -5 0 -16 16 -25 35 -9 19 -23 39 -31 46 -8 6 -14 20 -14 30 0 10 -6
22 -14 26 -18 11 -36 47 -36 75 0 13 -9 31 -20 41 -14 11 -20 29 -20 56 0 28
-5 43 -17 50 -15 8 -19 27 -21 98 -3 60 -9 93 -19 105 -28 31 -36 494 -10 535
6 9 41 13 121 12 l113 -1 16 -32z m372 -1118 c17 -78 70 -114 96 -66 11 21 12
21 25 3 8 -10 14 -25 14 -33 0 -8 7 -20 15 -26 8 -6 17 -30 21 -53 5 -35 4
-43 -8 -43 -9 0 -21 -7 -28 -15 -9 -10 -32 -15 -76 -15 -52 0 -68 4 -81 20
-10 11 -25 20 -34 20 -12 0 -19 12 -24 40 -4 22 -14 44 -23 49 -15 9 -15 11 0
28 9 10 20 31 23 46 4 16 16 34 26 40 11 7 19 22 19 35 0 40 24 19 35 -30z
m186 -370 c22 -17 34 -20 47 -12 25 14 60 6 68 -18 3 -11 15 -29 25 -39 26
-26 25 -69 -1 -69 -13 0 -20 7 -20 20 0 13 -7 20 -20 20 -10 0 -24 9 -30 20
-7 13 -26 22 -51 26 -24 4 -54 19 -71 34 -27 25 -28 29 -12 33 32 8 34 8 65
-15z"/>
<path d="M20918 28664 c-9 -9 -27 -18 -40 -19 -13 -1 -26 -3 -30 -4 -12 -2 -9
-51 3 -51 6 0 9 -15 7 -37 -3 -34 0 -39 45 -66 l47 -30 31 29 c33 32 73 110
65 130 -6 16 -81 64 -99 64 -7 0 -20 -7 -29 -16z"/>
<path d="M20312 28630 c-13 -16 -30 -50 -39 -76 l-16 -46 29 -24 c38 -31 70
-40 90 -23 9 8 29 12 45 11 24 -3 31 3 48 37 12 22 21 46 21 53 0 20 -68 78
-90 78 -11 0 -20 5 -20 10 0 21 -46 8 -68 -20z"/>
<path d="M21480 28626 c-6 -8 -21 -16 -32 -18 -34 -5 -45 -33 -24 -57 12 -14
16 -28 12 -45 -5 -20 0 -29 23 -45 35 -25 48 -26 90 -5 17 9 38 13 46 10 8 -3
15 0 16 7 0 7 3 36 5 64 4 51 3 53 -33 78 -42 28 -84 32 -103 11z"/>
<path d="M19788 28588 c-10 -10 -29 -18 -42 -18 -31 0 -38 -11 -42 -71 -4 -47
-3 -49 40 -79 53 -36 65 -37 100 -9 14 11 26 18 26 14 0 -3 9 -1 20 5 21 11
27 45 9 55 -6 4 -9 19 -8 33 4 36 -5 49 -49 70 -35 17 -38 17 -54 0z"/>
<path d="M22047 28558 c-31 -42 -57 -93 -57 -112 0 -19 64 -63 110 -76 29 -8
37 -7 58 13 29 27 52 69 52 95 0 28 -36 70 -81 92 -50 26 -54 26 -82 -12z"/>
<path d="M19190 28463 c-35 -25 -76 -123 -52 -123 5 0 18 -9 30 -20 20 -19 93
-50 119 -50 6 0 23 21 38 46 l27 46 -22 23 c-15 16 -19 30 -15 47 5 19 1 26
-17 35 -31 15 -84 13 -108 -4z"/>
<path d="M18645 28300 c-10 -11 -28 -20 -39 -20 -19 0 -21 -6 -22 -61 -1 -59
0 -61 35 -83 55 -34 67 -37 87 -15 9 10 29 19 44 19 34 0 46 25 27 54 -8 12
-12 35 -10 51 4 26 -1 33 -36 53 -49 27 -63 28 -86 2z"/>
<path d="M18088 28092 c-43 -48 -65 -99 -51 -121 5 -8 38 -31 73 -49 69 -36
74 -35 111 24 17 28 19 40 11 63 -6 17 -8 38 -6 48 5 19 -10 32 -69 57 -36 15
-36 14 -69 -22z"/>
<path d="M17554 27821 c-14 -22 -30 -56 -34 -76 -7 -31 -5 -41 13 -62 35 -40
55 -47 84 -28 14 9 33 15 43 12 25 -6 34 2 59 51 l21 42 -34 35 c-30 30 -93
65 -117 65 -5 0 -20 -18 -35 -39z"/>
<path d="M17075 27540 c-10 -12 -24 -19 -31 -16 -22 9 -39 -22 -25 -47 6 -12
10 -37 9 -56 -3 -30 1 -35 45 -60 l47 -26 18 22 c9 12 30 23 46 25 28 3 29 5
31 61 1 58 1 59 -41 88 -50 34 -74 36 -99 9z"/>
<path d="M16598 27202 c-21 -21 -38 -48 -38 -60 0 -11 -4 -24 -10 -27 -21 -13
-8 -36 38 -65 45 -29 92 -39 92 -21 0 5 13 11 28 14 16 3 34 17 42 31 12 23
11 28 -5 46 -9 10 -15 26 -12 35 11 26 -5 46 -50 66 -25 10 -45 19 -46 19 -1
0 -19 -17 -39 -38z"/>
<path d="M16140 26808 c-26 -35 -30 -49 -25 -77 12 -65 59 -107 91 -80 9 7 30
12 48 11 29 -3 34 1 54 43 l23 47 -28 33 c-25 29 -90 65 -120 65 -6 0 -25 -19
-43 -42z"/>
<path d="M14476 24476 c-29 -50 -32 -71 -13 -83 8 -4 13 -21 13 -38 -1 -23 5
-32 27 -43 20 -10 32 -11 39 -4 6 6 16 8 23 5 24 -9 55 17 80 67 l25 49 -39
30 c-30 24 -107 61 -126 61 -2 0 -15 -20 -29 -44z"/>
<path d="M27254 24399 c-12 -13 -27 -19 -41 -16 -30 6 -37 -7 -39 -71 -2 -48
1 -55 30 -76 59 -44 71 -48 99 -26 14 11 32 20 40 20 8 0 20 7 27 15 11 13 11
20 0 39 -7 14 -9 36 -6 53 6 27 3 31 -42 56 l-49 27 -19 -21z"/>
<path d="M14291 23938 c-17 -18 -34 -49 -37 -68 -3 -19 -7 -39 -8 -45 -2 -5
15 -24 38 -42 31 -24 44 -29 58 -22 10 5 18 14 18 20 0 6 14 7 35 3 30 -5 36
-3 43 17 12 32 3 100 -16 122 -15 17 -74 47 -93 47 -4 0 -22 -15 -38 -32z"/>
<path d="M27431 23836 c-16 -17 -39 -51 -50 -76 -23 -51 -20 -57 50 -98 l36
-22 26 20 c14 11 35 20 46 20 28 0 37 25 21 54 -7 13 -9 33 -5 45 8 27 -7 47
-56 70 l-38 18 -30 -31z"/>
<path d="M14129 23399 c-10 -10 -19 -24 -19 -30 0 -6 -7 -17 -15 -25 -8 -9
-15 -24 -15 -33 0 -10 7 -24 15 -31 8 -7 15 -23 15 -36 0 -33 36 -51 59 -30
12 11 27 14 48 10 28 -6 33 -2 58 40 l27 46 -29 34 c-15 18 -50 43 -76 54 -48
21 -48 21 -68 1z"/>
<path d="M27626 23295 c-11 -8 -28 -12 -38 -9 -24 7 -44 -10 -69 -57 l-19 -38
42 -41 c23 -22 50 -40 59 -40 10 0 21 -4 24 -10 13 -21 35 -9 65 34 33 49 39
83 15 92 -8 4 -15 18 -15 31 0 14 -8 32 -17 39 -22 17 -24 17 -47 -1z"/>
<path d="M14025 22843 c-31 -42 -65 -104 -65 -118 0 -14 86 -75 106 -75 7 0
19 -2 26 -5 15 -6 55 27 76 63 10 18 10 27 0 45 -7 12 -11 29 -10 37 3 23 -9
35 -55 59 -53 26 -54 26 -78 -6z"/>
<path d="M27733 22725 c-11 -8 -33 -13 -48 -12 -24 2 -32 -5 -57 -47 l-29 -49
38 -37 c21 -20 49 -40 63 -43 14 -3 34 -8 45 -12 16 -5 26 4 52 43 27 42 31
55 24 79 -21 73 -54 102 -88 78z"/>
<path d="M13983 22271 c-32 -16 -73 -79 -73 -112 0 -28 67 -71 116 -74 38 -3
47 0 69 27 30 35 30 37 9 66 -10 14 -14 33 -10 47 5 18 1 28 -16 39 -37 23
-61 25 -95 7z"/>
<path d="M27698 22132 c-33 -41 -39 -59 -22 -76 10 -11 13 -25 9 -49 -6 -31
-4 -34 35 -52 40 -18 41 -18 78 2 38 22 71 72 72 110 0 29 -60 70 -115 78 -32
5 -43 3 -57 -13z"/>
<path d="M14011 21696 c-9 -10 -20 -12 -41 -6 -22 6 -32 4 -43 -8 -34 -39 -59
-112 -39 -112 4 0 21 -14 39 -30 18 -17 39 -30 48 -30 9 0 26 -5 37 -11 23
-13 37 0 73 67 18 33 18 35 -1 55 -10 12 -19 30 -19 41 0 11 -9 27 -21 34 -18
13 -23 13 -33 0z"/>
<path d="M27800 21575 c-9 -11 -22 -14 -44 -10 -26 5 -35 2 -52 -22 -38 -51
-39 -72 -8 -105 31 -32 110 -71 125 -62 19 12 59 84 59 108 0 13 -7 29 -15 36
-8 7 -14 19 -13 27 2 8 -6 21 -18 29 -18 13 -23 13 -34 -1z"/>
<path d="M13955 21102 c-17 -20 -36 -54 -43 -75 -13 -35 -12 -39 10 -58 13
-11 46 -31 73 -44 l50 -23 32 36 c17 20 37 54 44 76 13 39 13 39 -24 71 -21
18 -48 35 -60 38 -12 2 -29 7 -37 11 -10 4 -26 -7 -45 -32z"/>
<path d="M27653 20960 c-27 -46 -29 -63 -7 -81 9 -7 14 -22 11 -36 -6 -31 27
-61 47 -44 8 7 29 11 47 9 28 -3 36 2 56 31 40 59 41 81 3 110 -29 23 -97 51
-125 51 -5 0 -20 -18 -32 -40z"/>
<path d="M14047 20529 c-15 -15 -32 -40 -36 -56 -5 -15 -12 -35 -16 -45 -9
-22 72 -78 114 -78 17 0 31 3 31 8 0 4 10 12 22 17 33 15 45 41 30 66 -7 11
-10 29 -7 40 8 24 -7 43 -48 64 -41 20 -57 17 -90 -16z"/>
<path d="M27606 20400 c-20 -22 -36 -49 -36 -59 0 -11 -4 -23 -10 -26 -22 -14
-8 -42 35 -68 54 -32 66 -33 89 -8 9 10 25 17 35 14 9 -2 23 3 31 12 11 13 11
20 0 39 -7 14 -9 36 -6 54 7 27 4 32 -40 56 -25 14 -50 26 -54 26 -4 0 -24
-18 -44 -40z"/>
<path d="M14167 19967 c-45 -59 -49 -73 -36 -118 16 -51 50 -77 82 -61 12 6
36 13 52 14 24 2 35 12 55 50 l25 47 -44 40 c-25 23 -46 39 -49 36 -2 -2 -17
2 -33 10 -27 14 -29 14 -52 -18z"/>
<path d="M27441 19845 c-30 -34 -42 -85 -21 -85 6 0 10 -16 10 -35 0 -24 6
-37 20 -45 21 -11 100 -8 120 5 14 8 50 80 50 99 0 18 -72 76 -95 76 -9 0 -25
4 -35 10 -15 8 -24 3 -49 -25z"/>
<path d="M14339 19407 c-29 -36 -53 -115 -39 -132 5 -6 26 -21 48 -33 38 -21
39 -21 58 -3 11 10 31 18 44 17 34 -1 55 39 46 88 -6 30 -16 43 -54 67 -57 36
-70 36 -103 -4z"/>
<path d="M27256 19291 c-30 -47 -33 -73 -10 -92 9 -7 13 -21 10 -33 -9 -36 5
-45 64 -41 30 2 58 4 62 5 9 0 58 86 58 102 0 17 -63 67 -98 78 -15 4 -35 11
-44 15 -12 5 -23 -4 -42 -34z"/>
<path d="M14605 18903 c-39 -6 -49 -15 -80 -71 l-26 -46 42 -36 c24 -19 54
-38 68 -41 14 -4 32 -8 40 -10 16 -4 70 67 71 92 0 9 -7 22 -15 29 -8 7 -15
25 -15 40 0 19 -7 30 -25 38 -14 7 -27 11 -28 11 -1 -1 -15 -4 -32 -6z"/>
<path d="M27017 18755 c-31 -48 -33 -61 -12 -69 9 -3 15 -18 15 -40 0 -41 17
-54 72 -54 41 0 52 10 92 79 l26 46 -39 31 c-22 18 -49 32 -60 32 -11 0 -30 4
-43 9 -21 8 -27 4 -51 -34z"/>
<path d="M25753 16890 c-13 -10 -32 -15 -45 -13 -35 7 -54 -33 -42 -89 7 -33
18 -48 49 -70 22 -15 47 -27 55 -28 8 0 31 16 51 34 49 47 61 111 27 138 -52
42 -71 48 -95 28z"/>
<path d="M16273 16571 c-12 -16 -30 -50 -38 -75 -19 -55 -14 -64 45 -91 38
-17 41 -17 60 0 11 10 28 15 39 12 42 -11 63 49 40 113 -10 27 -76 70 -106 69
-10 0 -28 -13 -40 -28z"/>
<path d="M25283 16475 c-20 -22 -33 -50 -37 -80 -6 -40 -4 -48 16 -65 35 -30
66 -35 87 -16 12 11 27 15 44 11 34 -9 47 17 41 80 -5 55 -5 55 -57 84 -50 28
-58 27 -94 -14z"/>
<path d="M16733 16216 c-18 -18 -33 -37 -33 -42 0 -5 -7 -22 -16 -39 -17 -33
-17 -34 64 -82 29 -17 50 -23 68 -19 13 4 22 11 19 16 -3 6 1 10 9 10 9 0 23
11 32 25 15 23 15 27 1 43 -9 10 -13 29 -11 47 4 27 0 32 -41 53 -24 12 -48
22 -52 21 -5 0 -23 -15 -40 -33z"/>
<path d="M24880 16155 c-7 -8 -24 -15 -39 -15 -15 0 -32 -5 -39 -12 -15 -15
-16 -92 -2 -119 11 -19 79 -59 101 -59 18 0 79 72 79 94 0 12 3 31 6 43 5 17
-3 28 -37 52 -48 36 -52 36 -69 16z"/>
<path d="M17194 15882 c-39 -50 -39 -66 4 -94 62 -41 122 -69 133 -62 6 3 19
25 30 48 l18 41 -32 33 c-33 34 -86 62 -116 61 -9 0 -25 -12 -37 -27z"/>
<path d="M24404 15835 c-7 -17 -40 -20 -49 -5 -11 18 -34 -2 -55 -47 l-22 -46
26 -24 c14 -13 26 -28 26 -32 0 -9 77 -41 97 -41 14 0 73 83 73 102 0 25 -39
95 -55 102 -25 9 -35 7 -41 -9z"/>
<path d="M17795 15621 c-4 -7 -22 -9 -45 -5 -40 7 -41 6 -94 -83 -4 -8 20 -28
71 -58 43 -25 82 -45 88 -45 12 0 55 73 55 93 0 8 -6 20 -14 27 -8 6 -16 26
-18 43 -3 32 -29 49 -43 28z"/>
<path d="M23866 15561 c-11 -12 -25 -16 -41 -13 -30 5 -44 -21 -26 -50 8 -13
8 -24 1 -38 -15 -28 -5 -42 51 -74 l51 -28 22 21 c12 12 32 21 44 21 27 0 39
25 22 45 -8 9 -10 28 -6 50 6 32 4 36 -33 60 -48 30 -62 31 -85 6z"/>
<path d="M18210 15343 c-31 -48 -37 -77 -20 -88 6 -3 10 -17 10 -30 0 -15 10
-31 25 -41 23 -15 26 -15 41 0 11 12 26 15 47 11 30 -6 34 -2 60 40 15 25 27
49 27 54 0 23 -117 101 -151 101 -5 0 -23 -21 -39 -47z"/>
<path d="M23380 15339 c0 -8 -12 -10 -40 -5 -39 6 -40 5 -69 -41 l-30 -48 21
-22 c12 -12 21 -35 22 -50 1 -27 3 -28 62 -29 l61 -1 26 44 c32 52 34 74 8 90
-11 7 -21 25 -23 40 -3 27 -38 48 -38 22z"/>
<path d="M18763 15158 c-15 -24 -32 -59 -39 -78 -12 -34 -11 -35 27 -63 31
-23 46 -28 67 -22 15 3 40 8 56 10 32 4 41 14 58 68 10 34 9 40 -12 62 -22 23
-99 65 -120 65 -5 0 -22 -19 -37 -42z"/>
<path d="M22823 15154 c-4 -12 -14 -15 -42 -10 -35 5 -38 3 -64 -41 l-28 -46
36 -37 c20 -21 55 -45 77 -54 l41 -15 28 30 c35 37 43 61 35 104 -7 33 -46 85
-66 85 -6 0 -13 -7 -17 -16z"/>
<path d="M19365 15038 c-45 -25 -82 -90 -71 -125 16 -48 141 -88 168 -54 35
43 39 60 22 86 -10 15 -14 34 -10 50 5 20 1 27 -23 40 -35 18 -58 19 -86 3z"/>
<path d="M19954 14936 c-4 -10 -15 -13 -39 -9 -31 5 -35 2 -54 -35 -28 -54
-27 -63 12 -99 25 -25 94 -63 113 -63 9 0 55 80 64 110 11 39 -9 82 -47 99
-32 15 -43 14 -49 -3z"/>
<path d="M20526 14885 c-4 -12 -14 -14 -40 -9 -34 6 -36 4 -57 -39 l-22 -44
24 -33 c29 -39 93 -74 123 -66 26 6 66 79 69 125 2 29 -3 38 -32 58 -40 27
-57 29 -65 8z"/>
<path d="M19925 11384 c-627 -67 -1212 -359 -1627 -812 -335 -366 -562 -846
-638 -1351 -19 -127 -21 -173 -18 -400 4 -224 8 -273 32 -396 99 -520 341
-982 706 -1345 142 -142 260 -237 432 -346 118 -75 324 -178 448 -224 47 -17
102 -38 122 -46 68 -25 278 -74 411 -96 190 -31 542 -31 742 1 536 84 1002
316 1393 695 109 106 303 337 309 369 2 7 -14 24 -35 39 -20 14 -56 40 -79 57
l-41 31 -38 -52 c-221 -306 -531 -564 -879 -733 -331 -161 -625 -227 -1005
-228 -352 0 -635 60 -950 202 -342 155 -604 353 -839 636 -195 233 -343 510
-437 820 -107 348 -125 775 -48 1135 71 337 219 659 436 950 86 115 293 324
404 407 552 417 1217 577 1874 452 567 -108 1096 -443 1430 -904 24 -33 45
-62 46 -64 6 -6 164 101 164 111 0 29 -205 272 -337 399 -298 287 -682 506
-1073 612 -216 59 -366 79 -625 82 -132 2 -258 1 -280 -1z"/>
<path d="M32690 11379 c-504 -57 -920 -261 -1188 -581 -89 -107 -119 -153
-186 -279 -135 -256 -189 -541 -166 -879 16 -247 71 -453 176 -663 207 -415
535 -664 1014 -772 143 -33 295 -45 565 -45 128 0 236 -5 260 -11 152 -42 167
-278 23 -348 -78 -37 -146 -43 -423 -38 -285 5 -368 16 -560 72 -14 4 -41 -10
-94 -49 -41 -31 -76 -58 -78 -60 -8 -7 95 -56 172 -83 80 -27 222 -57 349 -73
117 -14 466 -15 543 -1 126 24 212 61 280 124 83 77 119 191 102 330 -20 161
-95 266 -224 312 -42 15 -101 19 -370 26 -335 7 -380 12 -560 59 -416 108
-741 398 -884 788 -102 278 -123 649 -51 926 108 420 391 744 794 911 264 109
524 152 870 142 551 -15 1047 -165 1406 -425 41 -30 89 -68 107 -85 l32 -30
80 59 c44 33 80 62 81 66 0 3 -42 40 -92 81 -361 291 -844 472 -1402 526 -126
13 -466 12 -576 0z"/>
<path d="M6320 8865 l0 -2325 100 0 100 0 0 2325 0 2325 -100 0 -100 0 0
-2325z"/>
<path d="M6720 8865 l0 -2326 103 3 102 3 0 2320 0 2320 -102 3 -103 3 0
-2326z"/>
<path d="M7130 8865 l0 -2325 100 0 100 0 0 2325 0 2325 -100 0 -100 0 0
-2325z"/>
<path d="M7530 8865 l0 -2325 1175 0 1175 0 0 100 0 100 -1072 2 -1073 3 0
100 0 100 1073 3 1072 2 0 100 0 100 -1075 0 -1075 0 0 100 0 100 1075 0 1075
0 0 100 0 100 -1072 2 -1073 3 -3 403 -2 402 550 0 550 0 0 100 0 100 -547 2
-548 3 0 100 0 100 548 3 547 2 0 100 0 100 -550 0 -550 0 0 100 0 100 553 0
552 0 -3 100 -3 100 -550 0 -549 0 0 405 0 405 1075 0 1075 0 0 100 0 100
-1072 2 -1073 3 -3 98 -3 97 1076 0 1075 0 0 105 0 105 -1075 0 -1076 0 3 98
3 97 1073 3 1072 2 0 100 0 100 -1175 0 -1175 0 0 -2325z"/>
<path d="M10220 11186 c0 -3 11 -31 25 -63 21 -51 152 -381 362 -913 80 -205
182 -461 308 -780 53 -135 134 -339 180 -455 91 -231 226 -572 372 -940 52
-132 119 -301 148 -375 29 -74 118 -299 198 -500 79 -201 167 -421 194 -490
l49 -125 110 -3 109 -3 37 93 c202 514 374 950 443 1123 46 116 112 284 148
375 36 91 109 275 162 410 53 135 121 306 150 380 59 151 235 596 385 975 54
138 137 349 185 470 48 121 129 328 181 460 52 132 106 266 119 298 14 32 25
60 25 63 0 2 -48 4 -107 4 l-108 0 -17 -43 c-9 -23 -60 -152 -113 -287 -53
-135 -139 -351 -190 -480 -51 -129 -128 -323 -170 -430 -42 -107 -130 -330
-195 -495 -127 -320 -336 -850 -427 -1080 -77 -195 -292 -740 -468 -1183 -81
-205 -149 -372 -150 -370 -2 2 -32 77 -68 168 -185 469 -226 572 -304 770 -47
118 -114 289 -150 380 -36 91 -124 316 -197 500 -73 184 -166 418 -206 520
-40 102 -150 381 -245 620 -95 239 -222 561 -283 715 -60 154 -147 373 -192
488 l-82 207 -109 0 c-60 0 -109 -2 -109 -4z"/>
<path d="M10660 11183 c0 -5 41 -112 91 -238 50 -127 111 -282 136 -345 25
-63 92 -234 150 -380 154 -389 244 -617 306 -775 30 -77 103 -261 162 -410 59
-148 127 -322 152 -385 52 -131 267 -676 413 -1045 54 -137 104 -263 110 -280
11 -29 12 -27 70 100 32 72 57 132 55 135 -3 5 -93 233 -222 560 -36 91 -111
282 -168 425 -57 143 -166 420 -243 615 -77 195 -179 454 -227 575 -138 350
-251 636 -328 830 -39 99 -110 279 -158 400 l-87 220 -106 3 c-58 1 -106 -1
-106 -5z"/>
<path d="M11093 11178 c26 -63 58 -144 131 -328 46 -118 132 -336 191 -485 59
-148 131 -331 160 -405 49 -126 93 -237 280 -710 40 -102 107 -270 148 -375
41 -104 123 -311 182 -460 59 -148 134 -339 167 -423 33 -85 64 -150 68 -145
9 10 100 245 100 258 0 5 -22 66 -50 135 -27 69 -97 247 -156 395 -58 149
-134 342 -169 430 -35 88 -80 203 -100 255 -20 52 -97 246 -170 430 -131 333
-203 515 -350 890 -42 107 -108 275 -147 373 l-70 177 -110 0 c-84 0 -109 -3
-105 -12z"/>
<path d="M11530 11183 c0 -4 32 -89 71 -188 39 -99 100 -254 136 -345 36 -91
99 -250 140 -355 41 -104 124 -314 183 -465 105 -267 175 -444 305 -775 215
-544 255 -648 255 -658 0 -25 19 14 63 129 26 66 47 129 47 139 0 11 -45 132
-99 270 -55 137 -138 349 -186 470 -48 121 -120 303 -160 405 -40 102 -107
271 -148 375 -151 385 -223 565 -308 780 l-87 220 -106 3 c-58 1 -106 -1 -106
-5z"/>
<path d="M14291 11102 c-18 -48 -70 -181 -116 -297 -46 -115 -112 -284 -148
-375 -36 -91 -104 -264 -152 -385 -48 -121 -111 -281 -140 -355 -29 -74 -131
-331 -225 -570 -95 -239 -200 -507 -235 -595 -150 -380 -368 -932 -588 -1490
-52 -132 -116 -292 -141 -357 -25 -64 -46 -121 -46 -127 0 -7 36 -11 104 -11
l105 0 19 53 c11 28 95 241 186 472 501 1264 728 1838 816 2060 45 116 138
350 205 520 121 305 215 543 380 960 46 116 115 291 154 389 39 99 71 183 71
188 0 4 -48 8 -107 8 l-108 -1 -34 -87z"/>
<path d="M14748 11147 c-9 -23 -65 -163 -123 -312 -59 -148 -135 -342 -170
-430 -35 -88 -138 -349 -230 -580 -91 -231 -210 -532 -265 -670 -54 -137 -146
-369 -203 -515 -58 -146 -148 -373 -200 -505 -52 -132 -124 -314 -160 -405
-36 -91 -113 -286 -172 -435 -230 -579 -295 -746 -295 -751 0 -2 48 -3 106 -2
l107 3 23 55 c13 30 62 154 110 275 47 121 129 328 181 460 52 132 128 323
168 425 94 240 223 565 340 860 176 444 432 1092 530 1340 72 182 165 418 372
940 58 146 107 271 110 278 4 9 -21 12 -103 12 l-109 0 -17 -43z"/>
<path d="M15197 11183 c-6 -11 -51 -122 -140 -348 -41 -104 -119 -300 -172
-435 -53 -135 -121 -306 -150 -380 -67 -170 -132 -336 -302 -765 -73 -187
-174 -441 -223 -565 -48 -124 -136 -344 -193 -490 -58 -146 -125 -317 -150
-380 -25 -63 -98 -248 -162 -410 -64 -162 -148 -376 -187 -475 -39 -99 -88
-222 -109 -274 -22 -51 -39 -100 -39 -107 0 -11 22 -14 104 -14 l103 0 31 78
c17 42 87 219 155 392 69 173 164 414 212 535 327 828 476 1204 660 1670 70
176 169 426 220 555 88 223 175 443 340 860 40 102 105 266 144 364 39 99 71
183 71 188 0 10 -207 11 -213 1z"/>
<path d="M15790 8865 l0 -2325 100 0 100 0 0 2325 0 2325 -100 0 -100 0 0
-2325z"/>
<path d="M16192 8868 l3 -2323 100 0 100 0 3 2323 2 2322 -105 0 -105 0 2
-2322z"/>
<path d="M16600 8865 l0 -2325 100 0 100 0 0 2325 0 2325 -100 0 -100 0 0
-2325z"/>
<path d="M17000 8865 l0 -2325 100 0 100 0 0 2325 0 2325 -100 0 -100 0 0
-2325z"/>
<path d="M22540 11090 l0 -100 1515 0 1515 0 0 100 0 100 -1515 0 -1515 0 0
-100z"/>
<path d="M26000 9833 c0 -1151 2 -1379 15 -1493 54 -478 269 -921 627 -1290
286 -296 682 -524 1098 -631 387 -100 832 -101 1224 -3 556 139 1049 481 1368
949 158 231 259 457 327 730 56 227 61 362 61 1813 l0 1282 -105 0 -105 0 0
-1368 c0 -1482 0 -1486 -55 -1701 -158 -624 -614 -1146 -1223 -1397 -312 -130
-554 -178 -882 -177 -360 0 -635 64 -968 224 -665 318 -1101 931 -1172 1648
-6 64 -10 602 -10 1437 l0 1334 -100 0 -100 0 0 -1357z"/>
<path d="M26400 9883 c0 -742 4 -1358 10 -1423 19 -231 72 -426 171 -627 192
-391 465 -667 855 -864 739 -372 1606 -273 2234 257 277 234 488 567 584 924
56 208 56 212 56 1686 l0 1354 -100 0 -100 0 0 -1343 c0 -880 -4 -1372 -11
-1427 -45 -366 -183 -657 -439 -924 -258 -269 -585 -446 -956 -517 -161 -32
-514 -34 -669 -5 -360 67 -693 237 -941 481 -234 231 -383 498 -456 815 -22
95 -22 100 -28 1505 l-5 1410 -102 3 -103 3 0 -1308z"/>
<path d="M26813 9793 l3 -1398 22 -93 c48 -205 153 -415 294 -589 214 -263
542 -455 913 -534 94 -20 139 -24 310 -24 173 0 216 3 315 24 624 129 1081
563 1213 1151 21 94 21 111 24 1478 l4 1382 -100 0 -100 0 -4 -1367 c-3 -1344
-4 -1370 -24 -1463 -50 -228 -152 -417 -318 -589 -196 -203 -439 -335 -727
-393 -158 -32 -415 -32 -567 1 -247 53 -446 149 -630 304 -201 171 -334 383
-403 647 l-22 85 -3 1388 -4 1387 -100 0 -99 0 3 -1397z"/>
<path d="M27212 9818 l3 -1373 27 -96 c60 -218 194 -411 385 -555 133 -100
244 -154 413 -201 83 -23 119 -27 282 -31 203 -5 281 5 430 54 321 105 603
373 701 664 48 143 47 110 47 1555 l0 1355 -100 0 -100 0 -2 -1372 c-3 -1363
-3 -1373 -24 -1438 -92 -284 -329 -501 -644 -591 -77 -22 -103 -24 -275 -23
-225 0 -290 14 -450 93 -187 93 -338 240 -415 406 -75 159 -70 57 -70 1568 l0
1357 -105 0 -106 0 3 -1372z"/>
<path d="M19975 10979 c-223 -15 -473 -81 -702 -186 -542 -248 -971 -738
-1143 -1303 -75 -248 -107 -566 -82 -825 58 -596 358 -1132 834 -1490 140
-105 186 -133 353 -215 502 -248 1081 -281 1635 -94 103 35 338 151 435 214
227 149 420 332 568 537 l38 52 -74 55 c-41 31 -78 56 -84 56 -6 0 -42 -42
-82 -94 -85 -112 -266 -288 -378 -369 -241 -172 -511 -289 -787 -339 -140 -25
-435 -35 -562 -19 -447 59 -833 244 -1137 547 -318 316 -518 743 -558 1194
-30 333 27 660 169 965 171 367 408 636 737 835 353 213 712 301 1138 279 541
-29 1065 -311 1396 -752 29 -40 55 -74 57 -76 5 -5 164 100 164 109 0 22 -141
192 -250 301 -301 303 -669 503 -1080 585 -197 40 -372 50 -605 33z"/>
<path d="M32780 10979 c-195 -13 -443 -75 -584 -146 -232 -116 -440 -327 -542
-549 -81 -175 -109 -338 -101 -584 7 -176 26 -273 84 -425 99 -260 322 -494
578 -608 172 -75 404 -107 786 -107 220 0 307 -14 414 -65 173 -83 278 -283
278 -530 0 -294 -164 -499 -459 -574 -213 -54 -516 -55 -824 0 -163 28 -297
72 -428 140 l-114 58 -74 -56 c-41 -30 -74 -59 -74 -63 0 -10 77 -63 150 -102
276 -147 675 -227 1069 -215 374 11 622 107 786 305 67 81 129 205 151 302 23
101 23 309 0 409 -57 255 -202 440 -414 530 -119 50 -214 61 -577 70 -320 8
-346 10 -440 35 -226 59 -399 179 -522 361 -113 168 -173 376 -173 605 0 256
74 466 228 647 186 217 478 342 847 362 539 28 1043 -92 1396 -334 l75 -51 78
60 77 61 -38 33 c-65 57 -173 124 -311 194 -262 132 -591 216 -935 238 -160
11 -222 11 -387 -1z"/>
<path d="M22544 10777 c-3 -8 -4 -54 -2 -103 l3 -89 1513 -3 1512 -2 0 105 0
105 -1510 0 c-1247 0 -1512 -2 -1516 -13z"/>
<path d="M19940 10573 c-134 -17 -356 -81 -495 -143 -301 -135 -583 -389 -763
-687 -260 -431 -310 -995 -132 -1478 98 -265 294 -542 505 -715 225 -184 476
-305 761 -366 119 -26 146 -28 344 -28 198 0 225 2 344 28 316 68 565 195 815
416 79 70 271 295 260 304 -2 2 -40 27 -83 56 l-79 53 -21 -25 c-12 -14 -41
-51 -66 -83 -67 -86 -204 -212 -307 -283 -177 -121 -362 -199 -573 -243 -160
-33 -424 -33 -580 0 -314 66 -553 194 -775 416 -139 138 -221 252 -300 418
-93 193 -131 338 -143 542 -26 444 100 809 393 1139 141 159 355 303 585 394
250 99 621 119 900 48 326 -82 638 -288 832 -547 23 -32 47 -58 51 -59 4 0 44
23 88 51 53 34 77 55 71 63 -5 6 -31 40 -57 76 -230 306 -588 533 -990 626
-109 25 -140 28 -335 30 -118 1 -231 0 -250 -3z"/>
<path d="M32690 10565 c-383 -65 -623 -257 -710 -568 -29 -103 -36 -259 -16
-384 50 -329 248 -549 556 -620 45 -10 164 -17 395 -23 357 -9 443 -19 583
-68 256 -91 457 -303 545 -577 114 -355 53 -741 -157 -987 -224 -263 -492
-372 -942 -385 -528 -15 -993 105 -1332 344 l-62 44 -75 -61 c-41 -34 -75 -62
-75 -64 0 -6 131 -106 183 -139 418 -267 1112 -393 1664 -301 315 52 574 187
762 398 197 220 291 475 291 789 0 537 -288 974 -750 1135 -150 52 -244 64
-605 72 -379 10 -438 19 -551 85 -53 31 -131 117 -167 182 -63 117 -90 315
-63 454 26 129 63 199 154 288 161 159 358 210 762 197 365 -11 650 -81 854
-209 l40 -25 79 61 80 60 -24 19 c-169 134 -524 253 -854 288 -126 13 -475 10
-565 -5z"/>
<path d="M22540 10280 l0 -100 405 0 405 0 0 -1820 0 -1820 100 0 100 0 0
1820 0 1820 100 0 100 0 2 -1817 3 -1818 100 0 100 0 3 1818 2 1817 100 0 100
0 0 -1820 0 -1820 100 0 100 0 0 1820 0 1820 100 0 100 0 0 -1820 0 -1820 100
0 100 0 0 1820 0 1820 405 0 405 0 0 100 0 100 -1515 0 -1515 0 0 -100z"/>
<path d="M20035 10174 c-302 -31 -591 -169 -805 -384 -244 -245 -380 -574
-380 -925 0 -208 40 -379 131 -570 183 -384 546 -653 979 -726 87 -15 345 -12
434 5 252 49 497 175 676 348 52 50 170 189 170 200 0 6 -138 108 -154 114 -6
2 -29 -21 -51 -52 -111 -156 -337 -313 -540 -377 -134 -41 -206 -50 -381 -44
-176 5 -275 27 -409 87 -188 86 -380 254 -490 430 -140 222 -194 505 -150 778
38 235 145 434 326 608 189 180 380 271 634 301 294 35 564 -36 799 -211 84
-62 165 -142 218 -213 17 -24 35 -43 40 -43 13 0 158 99 158 108 0 16 -134
174 -193 227 -90 81 -252 186 -362 235 -153 67 -303 100 -470 104 -77 2 -158
2 -180 0z"/>
<path d="M32790 10170 c-307 -36 -455 -201 -420 -467 19 -138 86 -244 184
-289 78 -35 160 -44 427 -44 426 0 638 -47 885 -196 413 -248 633 -668 634
-1209 0 -407 -135 -733 -417 -1006 -292 -284 -780 -439 -1308 -415 -596 28
-1117 199 -1463 483 -35 29 -68 53 -71 53 -4 0 -42 -27 -84 -59 l-77 -59 87
-73 c214 -177 522 -337 808 -419 675 -195 1381 -165 1875 79 177 88 293 174
435 323 227 238 361 521 405 853 16 122 14 377 -4 505 -83 579 -414 1027 -901
1220 -234 94 -344 111 -755 119 -355 8 -381 11 -423 59 -43 48 -59 154 -33
215 17 41 61 82 108 101 141 59 713 36 930 -38 l47 -16 73 56 c40 31 74 59 76
63 4 11 -92 56 -178 85 -212 70 -595 104 -840 76z"/>
</g>
</svg>
